<?xml version="1.0" encoding="UTF-8" standalone="no"?>
<!DOCTYPE svg PUBLIC "-//W3C//DTD SVG 20010904//EN"
              "http://www.w3.org/TR/2001/REC-SVG-20010904/DTD/svg10.dtd">

<svg xmlns="http://www.w3.org/2000/svg"
     width="40mm" height="40mm"
     viewBox="0 0 800 800">
  <path id="Selection"
        fill="none" stroke="black" stroke-width="1"
        d="M 199.00,475.00
           C 197.83,483.30 196.02,490.44 196.00,499.00
             196.00,499.00 195.00,516.00 195.00,516.00
             195.00,516.00 195.00,545.00 195.00,545.00
             194.95,549.22 194.21,554.99 192.95,559.00
             186.16,580.50 159.06,579.08 141.00,579.00
             132.54,578.96 125.10,577.23 118.00,572.40
             99.74,559.98 101.78,536.44 102.00,517.00
             102.00,517.00 103.00,502.00 103.00,502.00
             103.00,502.00 103.00,406.00 103.00,406.00
             103.00,406.00 104.00,391.00 104.00,391.00
             104.00,391.00 104.00,282.00 104.00,282.00
             104.00,282.00 105.00,267.00 105.00,267.00
             105.00,267.00 105.00,261.00 105.00,261.00
             105.16,247.78 110.10,228.36 120.04,219.18
             128.96,210.94 145.22,206.97 157.00,204.60
             186.96,198.57 208.68,197.65 239.00,198.00
             239.00,198.00 249.00,198.91 249.00,198.91
             277.44,200.87 309.26,205.97 333.00,222.91
             365.49,246.09 382.33,285.99 384.04,325.00
             384.04,325.00 384.91,336.00 384.91,336.00
             383.54,360.14 378.92,383.34 367.74,405.00
             358.48,422.94 344.09,438.99 327.00,449.77
             320.09,454.13 313.58,457.49 306.00,460.55
             303.51,461.55 297.36,463.02 296.21,465.42
             294.67,468.61 298.83,472.83 301.02,474.66
             307.99,480.51 320.15,481.99 329.00,482.00
             329.00,482.00 334.00,482.00 334.00,482.00
             354.91,481.75 377.40,475.57 396.00,466.25
             400.02,464.23 411.90,458.17 414.07,454.68
             415.65,451.86 414.46,448.05 414.07,445.00
             414.07,445.00 413.00,428.00 413.00,428.00
             412.92,375.52 426.03,319.76 471.00,287.43
             482.76,278.97 492.44,273.98 506.00,269.05
             516.22,265.34 533.14,262.13 544.00,262.00
             565.35,261.75 587.03,264.18 606.00,274.87
             629.73,288.25 644.27,309.51 649.60,336.00
             653.19,353.85 653.38,365.87 641.48,381.00
             633.12,391.63 619.05,401.53 608.00,409.42
             608.00,409.42 575.00,431.74 575.00,431.74
             575.00,431.74 551.00,448.33 551.00,448.33
             551.00,448.33 530.00,462.58 530.00,462.58
             527.07,464.41 519.45,468.86 517.53,471.32
             515.20,474.51 516.73,481.22 517.53,485.00
             520.47,500.64 530.63,510.60 547.00,509.96
             556.21,509.60 568.05,504.95 576.00,500.42
             578.24,499.15 584.06,496.28 584.80,493.82
             585.65,490.99 581.75,487.83 580.04,486.00
             574.70,480.31 569.99,474.41 576.39,467.30
             581.49,461.64 604.21,449.66 612.00,445.75
             612.00,445.75 631.00,436.74 631.00,436.74
             631.00,436.74 689.00,409.42 689.00,409.42
             696.02,406.48 706.54,402.27 714.00,401.30
             719.33,400.61 724.03,402.42 725.78,408.00
             726.05,409.75 726.03,413.12 725.78,415.00
             725.75,425.36 719.84,445.59 716.72,456.00
             716.72,456.00 709.33,481.00 709.33,481.00
             709.33,481.00 693.15,523.00 693.15,523.00
             689.28,532.09 681.46,552.69 672.00,556.26
             663.81,559.35 647.11,546.96 641.00,541.86
             637.62,539.03 632.83,533.08 628.00,534.94
             628.00,534.94 607.00,549.28 607.00,549.28
             595.78,557.12 581.79,565.77 569.00,570.58
             558.06,574.69 550.40,575.02 539.00,575.00
             505.54,574.95 472.93,561.62 450.87,536.00
             446.74,531.21 442.91,526.66 440.00,521.00
             440.00,521.00 402.00,543.54 402.00,543.54
             402.00,543.54 373.00,552.42 373.00,552.42
             328.90,564.68 280.07,566.79 243.00,535.56
             230.56,525.08 220.50,511.91 212.20,498.00
             208.70,492.13 202.96,478.97 199.00,475.00 Z
           M 197.00,396.00
           C 205.55,397.15 213.24,398.99 222.00,399.00
             237.04,399.02 252.59,397.01 266.00,389.69
             275.79,384.34 285.41,375.23 290.10,365.00
             300.33,342.72 292.77,309.03 274.00,293.32
             261.88,283.18 243.56,278.64 228.00,278.04
             217.76,277.64 207.77,280.43 198.00,283.00
             198.00,283.00 198.00,337.00 198.00,337.00
             198.00,337.00 197.00,354.00 197.00,354.00
             197.00,354.00 197.00,396.00 197.00,396.00 Z
           M 550.00,333.30
           C 529.33,337.15 504.72,353.57 490.87,369.04
             483.86,376.87 474.09,391.60 490.00,396.21
             492.51,396.94 494.43,396.97 497.00,397.00
             497.00,397.00 506.00,397.00 506.00,397.00
             516.28,396.88 525.17,392.12 534.00,387.30
             547.51,379.93 561.60,371.14 572.96,360.71
             575.17,358.68 577.17,356.42 578.95,354.00
             580.10,352.43 581.18,350.86 581.84,349.00
             583.80,343.52 580.75,339.47 575.98,337.00
             569.71,333.74 557.04,332.60 550.00,333.30 Z" />
</svg>
