<svg xmlns="http://www.w3.org/2000/svg" xmlns:xlink="http://www.w3.org/1999/xlink" width="800" zoomAndPan="magnify" viewBox="0 0 600 149.999998" height="200" preserveAspectRatio="xMidYMid meet" version="1.0"><defs><g/></defs><g fill="#f36118" fill-opacity="1"><g transform="translate(0.000005, 112.258315)"><g><path d="M 12.796875 -23.96875 C 13.335938 -23.75 13.609375 -23.910156 13.609375 -24.453125 C 13.609375 -24.992188 13.441406 -25.101562 13.109375 -24.78125 C 12.679688 -24.34375 12.578125 -24.070312 12.796875 -23.96875 Z M 48.90625 -88.90625 C 47.175781 -88.90625 45.503906 -88.632812 43.890625 -88.09375 C 43.128906 -87.664062 42.375 -87.394531 41.625 -87.28125 C 41.082031 -87.175781 40.40625 -86.929688 39.59375 -86.546875 C 38.78125 -86.171875 37.992188 -85.765625 37.234375 -85.328125 C 36.484375 -84.898438 35.835938 -84.5 35.296875 -84.125 C 34.765625 -83.75 34.5 -83.453125 34.5 -83.234375 C 34.382812 -83.128906 34.4375 -82.804688 34.65625 -82.265625 C 34.976562 -81.398438 35.03125 -80.375 34.8125 -79.1875 C 34.707031 -78.96875 34.546875 -78.5625 34.328125 -77.96875 C 34.109375 -77.375 33.785156 -76.484375 33.359375 -75.296875 C 32.492188 -73.359375 31.765625 -71.523438 31.171875 -69.796875 C 30.578125 -68.066406 30.117188 -66.445312 29.796875 -64.9375 C 29.578125 -63.75 29.332031 -62.425781 29.0625 -60.96875 C 28.789062 -59.507812 28.492188 -57.863281 28.171875 -56.03125 C 27.523438 -52.570312 27.3125 -50.738281 27.53125 -50.53125 L 27.6875 -50.53125 C 28.988281 -50.53125 30.742188 -50.929688 32.953125 -51.734375 C 35.171875 -52.546875 37.4375 -53.519531 39.75 -54.65625 C 42.070312 -55.789062 44.285156 -56.976562 46.390625 -58.21875 C 48.492188 -59.457031 50.085938 -60.5625 51.171875 -61.53125 C 53.972656 -63.800781 56.398438 -66.71875 58.453125 -70.28125 C 59.753906 -72.332031 60.671875 -74.25 61.203125 -76.03125 C 61.742188 -77.8125 61.691406 -79.726562 61.046875 -81.78125 C 59.972656 -84.375 58.328125 -86.207031 56.109375 -87.28125 C 53.898438 -88.363281 51.5 -88.90625 48.90625 -88.90625 Z M 48.09375 -103.640625 C 49.28125 -103.640625 50.359375 -103.476562 51.328125 -103.15625 C 52.628906 -103.050781 53.550781 -102.832031 54.09375 -102.5 C 57.539062 -101.101562 60.800781 -99.378906 63.875 -97.328125 C 66.957031 -95.273438 69.363281 -92.519531 71.09375 -89.0625 C 71.195312 -88.84375 71.300781 -88.679688 71.40625 -88.578125 C 71.519531 -88.472656 71.628906 -88.363281 71.734375 -88.25 C 71.523438 -88.25 71.523438 -88.359375 71.734375 -88.578125 C 71.847656 -88.472656 72.09375 -88.066406 72.46875 -87.359375 C 72.84375 -86.660156 73.03125 -86.039062 73.03125 -85.5 C 73.789062 -83.664062 74.171875 -81.453125 74.171875 -78.859375 C 74.171875 -75.410156 73.601562 -72.253906 72.46875 -69.390625 C 71.332031 -66.523438 69.816406 -63.878906 67.921875 -61.453125 C 66.035156 -59.023438 63.851562 -56.8125 61.375 -54.8125 C 58.894531 -52.8125 56.359375 -50.894531 53.765625 -49.0625 C 51.816406 -47.769531 50.410156 -47.070312 49.546875 -46.96875 C 48.253906 -46.632812 47.878906 -46.144531 48.421875 -45.5 C 49.171875 -44.851562 50.570312 -42.640625 52.625 -38.859375 C 52.945312 -38.429688 53.753906 -37.164062 55.046875 -35.0625 C 56.347656 -32.957031 57.804688 -30.769531 59.421875 -28.5 C 61.046875 -26.226562 62.585938 -24.203125 64.046875 -22.421875 C 65.503906 -20.640625 66.445312 -19.75 66.875 -19.75 C 66.875 -20.1875 66.820312 -20.617188 66.71875 -21.046875 C 66.613281 -21.484375 66.664062 -22.1875 66.875 -23.15625 C 66.875 -23.257812 66.925781 -23.582031 67.03125 -24.125 C 67.144531 -24.664062 67.253906 -24.988281 67.359375 -25.09375 C 67.472656 -25.425781 67.582031 -25.753906 67.6875 -26.078125 C 67.800781 -26.398438 67.910156 -26.664062 68.015625 -26.875 C 68.335938 -27.414062 68.632812 -28.195312 68.90625 -29.21875 C 69.175781 -30.25 69.523438 -31.519531 69.953125 -33.03125 L 70.28125 -34.65625 L 70.4375 -29.796875 C 70.550781 -27.421875 70.6875 -25.34375 70.84375 -23.5625 C 71.007812 -21.78125 71.226562 -20.132812 71.5 -18.625 C 71.769531 -17.113281 72.144531 -15.65625 72.625 -14.25 C 73.113281 -12.84375 73.679688 -11.382812 74.328125 -9.875 C 74.546875 -9.445312 74.757812 -8.960938 74.96875 -8.421875 C 75.1875 -7.878906 75.40625 -7.234375 75.625 -6.484375 C 76.269531 -4.859375 76.378906 -3.503906 75.953125 -2.421875 C 75.734375 -1.890625 75.242188 -1.242188 74.484375 -0.484375 C 73.734375 0.265625 73.195312 0.75 72.875 0.96875 C 71.90625 1.40625 70.394531 1.351562 68.34375 0.8125 C 67.039062 0.375 65.796875 -0.21875 64.609375 -0.96875 C 63.421875 -1.726562 62.394531 -2.703125 61.53125 -3.890625 C 57.96875 -9.179688 54.78125 -14.601562 51.96875 -20.15625 C 49.164062 -25.71875 46.414062 -31.414062 43.71875 -37.25 C 42.320312 -40.488281 41.457031 -42.375 41.125 -42.90625 C 41.019531 -43.34375 39.507812 -43.238281 36.59375 -42.59375 C 35.195312 -42.269531 34.066406 -42 33.203125 -41.78125 C 32.335938 -41.5625 31.632812 -41.398438 31.09375 -41.296875 C 30.226562 -41.179688 29.632812 -41.039062 29.3125 -40.875 C 28.988281 -40.71875 28.71875 -40.695312 28.5 -40.8125 C 28.28125 -40.914062 27.953125 -40.910156 27.515625 -40.796875 C 27.085938 -40.691406 26.710938 -40.75 26.390625 -40.96875 C 25.316406 -41.289062 24.5625 -40.859375 24.125 -39.671875 C 24.125 -39.347656 23.960938 -38.703125 23.640625 -37.734375 C 22.773438 -34.597656 21.988281 -31.492188 21.28125 -28.421875 C 20.582031 -25.347656 20.128906 -22.191406 19.921875 -18.953125 C 19.804688 -18.515625 19.722656 -18.023438 19.671875 -17.484375 C 19.617188 -16.941406 19.539062 -16.40625 19.4375 -15.875 C 19.320312 -15.332031 19.265625 -14.765625 19.265625 -14.171875 C 19.265625 -13.578125 19.210938 -12.898438 19.109375 -12.140625 C 19.003906 -11.492188 18.953125 -10.925781 18.953125 -10.4375 C 18.953125 -9.957031 18.894531 -9.5 18.78125 -9.0625 C 18.675781 -8.632812 18.59375 -7.988281 18.53125 -7.125 C 18.476562 -6.257812 18.507812 -5.070312 18.625 -3.5625 L 18.625 0.96875 L 18.140625 1.453125 C 17.816406 1.992188 17.4375 2.265625 17 2.265625 C 16.675781 2.265625 15.597656 1.78125 13.765625 0.8125 C 9.554688 -1.132812 7.179688 -2.539062 6.640625 -3.40625 C 6.535156 -3.507812 6.484375 -4.75 6.484375 -7.125 C 6.484375 -8.3125 6.484375 -9.253906 6.484375 -9.953125 C 6.484375 -10.660156 6.585938 -11.285156 6.796875 -11.828125 C 6.910156 -12.253906 7.070312 -12.679688 7.28125 -13.109375 C 7.5 -13.546875 7.71875 -14.035156 7.9375 -14.578125 L 8.90625 -16.515625 C 9.007812 -17.378906 9.390625 -18.132812 10.046875 -18.78125 C 10.148438 -18.675781 10.203125 -18.566406 10.203125 -18.453125 C 10.203125 -17.265625 10.578125 -17.375 11.328125 -18.78125 L 11.984375 -19.4375 C 12.203125 -19.863281 12.148438 -20.128906 11.828125 -20.234375 C 11.492188 -20.453125 11.351562 -20.640625 11.40625 -20.796875 C 11.46875 -20.960938 11.578125 -21.125 11.734375 -21.28125 C 11.898438 -21.445312 12.035156 -21.613281 12.140625 -21.78125 C 12.253906 -21.945312 12.148438 -22.082031 11.828125 -22.1875 C 11.492188 -22.289062 11.328125 -22.453125 11.328125 -22.671875 C 11.328125 -22.890625 11.4375 -22.941406 11.65625 -22.828125 C 12.300781 -22.398438 12.703125 -22.398438 12.859375 -22.828125 C 13.023438 -23.265625 12.84375 -23.753906 12.3125 -24.296875 L 12.3125 -24.609375 C 12.414062 -24.609375 12.492188 -24.6875 12.546875 -24.84375 C 12.597656 -25.007812 12.648438 -25.175781 12.703125 -25.34375 C 12.765625 -25.507812 12.738281 -25.617188 12.625 -25.671875 C 12.519531 -25.722656 12.359375 -25.640625 12.140625 -25.421875 C 11.929688 -25.203125 11.828125 -25.148438 11.828125 -25.265625 C 11.710938 -25.367188 11.976562 -26.070312 12.625 -27.375 C 12.945312 -28.019531 13.054688 -28.394531 12.953125 -28.5 C 12.523438 -28.820312 12.523438 -29.144531 12.953125 -29.46875 C 13.054688 -29.582031 13.109375 -29.800781 13.109375 -30.125 C 12.898438 -30.988281 12.796875 -31.71875 12.796875 -32.3125 C 12.796875 -32.90625 12.898438 -33.46875 13.109375 -34 C 13.328125 -34.4375 13.4375 -35.140625 13.4375 -36.109375 C 13.65625 -36.972656 13.765625 -37.40625 13.765625 -37.40625 L 14.09375 -37.25 C 14.300781 -36.488281 14.242188 -35.894531 13.921875 -35.46875 C 13.816406 -35.25 13.765625 -34.976562 13.765625 -34.65625 C 13.765625 -34.4375 13.765625 -34.273438 13.765625 -34.171875 C 13.984375 -34.171875 14.195312 -35.085938 14.40625 -36.921875 C 14.40625 -37.347656 14.351562 -37.617188 14.25 -37.734375 C 14.03125 -37.835938 13.921875 -38.050781 13.921875 -38.375 C 13.921875 -38.695312 13.976562 -38.914062 14.09375 -39.03125 C 14.300781 -39.132812 14.59375 -39.265625 14.96875 -39.421875 C 15.351562 -39.585938 15.328125 -40.15625 14.890625 -41.125 C 14.359375 -42.644531 14.253906 -43.457031 14.578125 -43.5625 C 14.578125 -43.5625 14.789062 -43.671875 15.21875 -43.890625 C 15.976562 -43.992188 15.925781 -44.585938 15.0625 -45.671875 C 14.84375 -45.992188 14.570312 -46.34375 14.25 -46.71875 C 13.925781 -47.09375 13.65625 -47.550781 13.4375 -48.09375 C 12.894531 -49.28125 12.625 -49.898438 12.625 -49.953125 C 12.625 -50.003906 13.054688 -49.976562 13.921875 -49.875 L 15.21875 -49.875 L 15.546875 -50.359375 C 15.867188 -50.796875 16.109375 -51.3125 16.265625 -51.90625 C 16.429688 -52.5 16.625 -53.171875 16.84375 -53.921875 C 16.945312 -54.566406 17.050781 -55.484375 17.15625 -56.671875 C 17.269531 -57.859375 17.351562 -59.097656 17.40625 -60.390625 C 17.457031 -61.691406 17.484375 -62.960938 17.484375 -64.203125 C 17.484375 -65.453125 17.484375 -66.453125 17.484375 -67.203125 C 17.597656 -68.609375 17.597656 -69.414062 17.484375 -69.625 C 17.378906 -69.84375 17.003906 -69.898438 16.359375 -69.796875 C 14.953125 -69.578125 13.382812 -70.0625 11.65625 -71.25 C 10.90625 -71.789062 10.125 -72.410156 9.3125 -73.109375 C 8.5 -73.816406 7.769531 -74.570312 7.125 -75.375 C 6.476562 -76.1875 5.9375 -76.96875 5.5 -77.71875 C 5.070312 -78.476562 4.859375 -79.078125 4.859375 -79.515625 C 4.859375 -81.992188 5.367188 -84.53125 6.390625 -87.125 C 7.421875 -89.71875 9.125 -91.660156 11.5 -92.953125 C 12.6875 -93.378906 13.789062 -93.804688 14.8125 -94.234375 C 15.84375 -94.671875 16.894531 -95.160156 17.96875 -95.703125 C 18.507812 -96.242188 19 -96.515625 19.4375 -96.515625 C 19.757812 -96.835938 20.648438 -97.269531 22.109375 -97.8125 C 23.566406 -98.351562 25.15625 -98.921875 26.875 -99.515625 C 28.601562 -100.109375 30.25 -100.644531 31.8125 -101.125 C 33.382812 -101.613281 34.382812 -101.910156 34.8125 -102.015625 C 35.351562 -102.015625 36.703125 -102.234375 38.859375 -102.671875 C 41.773438 -103.316406 44.851562 -103.640625 48.09375 -103.640625 Z M 48.09375 -103.640625 "/></g></g></g><g fill="#f36118" fill-opacity="1"><g transform="translate(79.832415, 112.258315)"><g><path d="M 32.21875 -62.015625 C 32.976562 -62.128906 33.65625 -62.1875 34.25 -62.1875 C 34.84375 -62.1875 35.351562 -62.238281 35.78125 -62.34375 C 37.625 -62.34375 39.4375 -61.960938 41.21875 -61.203125 C 43 -60.453125 44.585938 -59.484375 45.984375 -58.296875 C 51.273438 -54.628906 53.8125 -48.90625 53.59375 -41.125 C 53.59375 -39.613281 53.429688 -38.398438 53.109375 -37.484375 C 52.785156 -36.566406 52.570312 -35.734375 52.46875 -34.984375 C 52.25 -34.003906 52.054688 -33.378906 51.890625 -33.109375 C 51.734375 -32.847656 51.28125 -32.71875 50.53125 -32.71875 C 50.3125 -32.71875 50.007812 -32.6875 49.625 -32.625 C 49.25 -32.570312 48.847656 -32.4375 48.421875 -32.21875 C 47.773438 -31.894531 46.476562 -31.46875 44.53125 -30.9375 C 43.34375 -30.5 42.234375 -30.117188 41.203125 -29.796875 C 40.179688 -29.472656 39.238281 -29.203125 38.375 -28.984375 C 37.300781 -28.765625 36.410156 -28.546875 35.703125 -28.328125 C 35.003906 -28.117188 34.4375 -27.960938 34 -27.859375 C 33.144531 -27.742188 32.632812 -27.601562 32.46875 -27.4375 C 32.300781 -27.28125 31.625 -27.09375 30.4375 -26.875 L 27.046875 -25.90625 C 26.398438 -25.695312 25.859375 -25.5625 25.421875 -25.5 C 24.992188 -25.445312 24.671875 -25.367188 24.453125 -25.265625 C 24.128906 -25.148438 23.773438 -25.066406 23.390625 -25.015625 C 23.015625 -24.960938 22.664062 -24.882812 22.34375 -24.78125 C 20.9375 -24.34375 19.804688 -24.394531 18.953125 -24.9375 C 18.617188 -25.15625 17.753906 -26.019531 16.359375 -27.53125 C 14.734375 -29.144531 13.867188 -29.738281 13.765625 -29.3125 L 13.765625 -28.984375 C 13.765625 -28.984375 13.65625 -28.445312 13.4375 -27.375 C 13.21875 -26.289062 13.109375 -24.613281 13.109375 -22.34375 C 13.109375 -19.863281 13.273438 -18.191406 13.609375 -17.328125 C 14.578125 -13.222656 16.785156 -10.523438 20.234375 -9.234375 C 20.773438 -9.015625 21.75 -8.90625 23.15625 -8.90625 C 24.5625 -8.90625 25.695312 -9.015625 26.5625 -9.234375 C 27.851562 -9.441406 29.304688 -9.757812 30.921875 -10.1875 C 32.546875 -10.625 34.191406 -11.140625 35.859375 -11.734375 C 37.535156 -12.328125 39.128906 -13.03125 40.640625 -13.84375 C 42.148438 -14.65625 43.335938 -15.597656 44.203125 -16.671875 C 44.640625 -17.210938 44.800781 -17.59375 44.6875 -17.8125 C 44.582031 -18.03125 44.097656 -18.570312 43.234375 -19.4375 L 40.96875 -21.703125 L 40.15625 -22.34375 L 41.625 -22.34375 C 41.945312 -22.457031 42.320312 -22.515625 42.75 -22.515625 C 43.1875 -22.515625 43.671875 -22.515625 44.203125 -22.515625 C 45.285156 -22.398438 46.097656 -22.128906 46.640625 -21.703125 C 48.472656 -20.296875 49.660156 -19.703125 50.203125 -19.921875 C 50.628906 -20.128906 50.84375 -20.234375 50.84375 -20.234375 C 51.382812 -20.453125 52.300781 -19.535156 53.59375 -17.484375 C 54.25 -16.515625 54.679688 -15.113281 54.890625 -13.28125 C 55.003906 -11.976562 54.898438 -10.976562 54.578125 -10.28125 C 54.253906 -9.582031 53.601562 -8.800781 52.625 -7.9375 C 51.550781 -6.96875 50.066406 -6.019531 48.171875 -5.09375 C 46.285156 -4.175781 44.289062 -3.3125 42.1875 -2.5 C 40.082031 -1.695312 37.976562 -1 35.875 -0.40625 C 33.769531 0.1875 31.90625 0.59375 30.28125 0.8125 C 29.738281 1.03125 29.171875 1.140625 28.578125 1.140625 C 27.984375 1.140625 27.414062 1.140625 26.875 1.140625 C 24.9375 1.140625 22.992188 0.945312 21.046875 0.5625 C 19.109375 0.1875 17.273438 -0.484375 15.546875 -1.453125 C 14.140625 -2.316406 13.4375 -2.859375 13.4375 -3.078125 C 13.4375 -3.296875 13.351562 -3.429688 13.1875 -3.484375 C 13.03125 -3.535156 12.738281 -3.671875 12.3125 -3.890625 C 10.46875 -4.960938 8.976562 -6.738281 7.84375 -9.21875 C 6.71875 -11.707031 5.882812 -14.03125 5.34375 -16.1875 L 5.015625 -17.328125 L 4.859375 -23.3125 C 4.859375 -27.53125 5.394531 -31.847656 6.46875 -36.265625 C 7.550781 -40.691406 9.195312 -44.769531 11.40625 -48.5 C 13.625 -52.226562 16.457031 -55.332031 19.90625 -57.8125 C 23.363281 -60.289062 27.46875 -61.691406 32.21875 -62.015625 Z M 32.875 -54.578125 C 31.789062 -55.003906 30.925781 -55.109375 30.28125 -54.890625 C 29.414062 -54.679688 28.363281 -54.035156 27.125 -52.953125 C 25.882812 -51.867188 24.613281 -50.597656 23.3125 -49.140625 C 22.019531 -47.691406 20.859375 -46.238281 19.828125 -44.78125 C 18.804688 -43.320312 18.023438 -42.101562 17.484375 -41.125 C 16.941406 -40.269531 16.507812 -39.21875 16.1875 -37.96875 C 15.863281 -36.726562 15.757812 -36.054688 15.875 -35.953125 C 16.082031 -35.628906 17.484375 -35.679688 20.078125 -36.109375 C 20.722656 -36.328125 22.148438 -36.648438 24.359375 -37.078125 C 26.578125 -37.515625 28.929688 -38.109375 31.421875 -38.859375 C 36.921875 -40.703125 39.992188 -42 40.640625 -42.75 C 40.859375 -42.96875 40.804688 -43.613281 40.484375 -44.6875 C 40.378906 -44.90625 40.242188 -45.390625 40.078125 -46.140625 C 39.921875 -46.898438 39.785156 -47.390625 39.671875 -47.609375 C 39.242188 -49.335938 38.488281 -50.796875 37.40625 -51.984375 C 36.863281 -52.523438 36.210938 -52.984375 35.453125 -53.359375 C 34.703125 -53.734375 33.84375 -54.140625 32.875 -54.578125 Z M 32.875 -54.578125 "/></g></g></g><g fill="#f36118" fill-opacity="1"><g transform="translate(138.613687, 112.258315)"><g><path d="M 59.109375 -64.9375 C 59.648438 -65.476562 60.023438 -65.75 60.234375 -65.75 C 60.890625 -65.75 61.914062 -64.832031 63.3125 -63 C 65.257812 -60.289062 65.691406 -57.585938 64.609375 -54.890625 C 64.503906 -54.566406 64.234375 -54.132812 63.796875 -53.59375 C 63.367188 -53.0625 62.992188 -52.796875 62.671875 -52.796875 C 62.566406 -52.796875 62.457031 -52.847656 62.34375 -52.953125 C 62.125 -53.378906 61.75 -53.328125 61.21875 -52.796875 C 60.882812 -52.359375 59.828125 -50.65625 58.046875 -47.6875 C 56.265625 -44.71875 53.703125 -40.425781 50.359375 -34.8125 C 50.140625 -34.382812 49.816406 -33.847656 49.390625 -33.203125 C 48.960938 -32.546875 48.910156 -32.21875 49.234375 -32.21875 C 49.554688 -32.21875 49.769531 -32.382812 49.875 -32.71875 L 51.015625 -34.65625 C 51.117188 -34.4375 51.0625 -34.109375 50.84375 -33.671875 C 50.632812 -33.242188 50.53125 -32.976562 50.53125 -32.875 C 50.53125 -32.769531 50.3125 -32.226562 49.875 -31.25 C 49.445312 -30.28125 48.988281 -29.226562 48.5 -28.09375 C 48.007812 -26.957031 47.519531 -25.90625 47.03125 -24.9375 C 46.550781 -23.96875 46.203125 -23.320312 45.984375 -23 C 45.234375 -21.8125 44.800781 -20.785156 44.6875 -19.921875 C 44.363281 -18.835938 44.039062 -18.296875 43.71875 -18.296875 C 43.613281 -18.296875 43.34375 -17.863281 42.90625 -17 C 42.476562 -16.132812 42.210938 -15.597656 42.109375 -15.390625 C 41.890625 -14.847656 41.347656 -13.601562 40.484375 -11.65625 C 40.160156 -10.789062 39.835938 -10.0625 39.515625 -9.46875 C 39.191406 -8.875 38.921875 -8.363281 38.703125 -7.9375 C 38.484375 -7.175781 38 -6.3125 37.25 -5.34375 C 36.601562 -4.476562 36.144531 -3.664062 35.875 -2.90625 C 35.601562 -2.15625 35.359375 -1.457031 35.140625 -0.8125 C 34.921875 0.0507812 34.726562 0.5625 34.5625 0.71875 C 34.40625 0.882812 34.164062 0.804688 33.84375 0.484375 C 33.738281 0.378906 33.035156 0.757812 31.734375 1.625 C 30.765625 2.269531 30.144531 2.59375 29.875 2.59375 C 29.601562 2.59375 29.144531 2.375 28.5 1.9375 C 28.175781 1.613281 27.5 1.425781 26.46875 1.375 C 25.445312 1.320312 24.722656 1.078125 24.296875 0.640625 C 23.109375 -0.546875 22.457031 -1.945312 22.34375 -3.5625 C 22.238281 -4.207031 21.914062 -5.34375 21.375 -6.96875 C 21.15625 -7.832031 20.9375 -8.5625 20.71875 -9.15625 C 20.507812 -9.75 20.347656 -10.257812 20.234375 -10.6875 C 20.128906 -10.90625 19.941406 -11.414062 19.671875 -12.21875 C 19.398438 -13.03125 18.992188 -14.191406 18.453125 -15.703125 C 17.703125 -18.191406 17.054688 -20.300781 16.515625 -22.03125 C 15.648438 -24.9375 14.785156 -27.847656 13.921875 -30.765625 C 13.054688 -33.679688 12.140625 -36.539062 11.171875 -39.34375 C 9.660156 -44.207031 7.503906 -47.015625 4.703125 -47.765625 C 3.941406 -47.878906 3.453125 -48.148438 3.234375 -48.578125 C 2.585938 -49.441406 2.265625 -50.46875 2.265625 -51.65625 C 2.265625 -52.09375 2.535156 -52.847656 3.078125 -53.921875 C 5.773438 -58.453125 8.957031 -61.316406 12.625 -62.515625 C 13.164062 -62.722656 14.410156 -62.828125 16.359375 -62.828125 L 18.953125 -62.828125 L 21.375 -62.015625 C 22.132812 -61.804688 22.78125 -61.617188 23.3125 -61.453125 C 23.851562 -61.296875 24.285156 -61.109375 24.609375 -60.890625 C 26.015625 -60.242188 27.097656 -59.164062 27.859375 -57.65625 C 28.609375 -55.925781 28.929688 -54.085938 28.828125 -52.140625 C 28.828125 -50.628906 28.664062 -49.441406 28.34375 -48.578125 C 27.800781 -46.421875 27.53125 -43.9375 27.53125 -41.125 C 27.53125 -38.96875 27.632812 -37.109375 27.84375 -35.546875 C 28.0625 -33.984375 28.171875 -32.769531 28.171875 -31.90625 C 28.066406 -31.144531 28.09375 -30.628906 28.25 -30.359375 C 28.414062 -30.085938 28.550781 -29.414062 28.65625 -28.34375 C 29.195312 -25.96875 29.523438 -24.671875 29.640625 -24.453125 C 29.960938 -24.453125 30.257812 -24.640625 30.53125 -25.015625 C 30.800781 -25.398438 31.363281 -26.289062 32.21875 -27.6875 C 32.550781 -28.226562 33.28125 -29.441406 34.40625 -31.328125 C 35.539062 -33.222656 36.78125 -35.222656 38.125 -37.328125 C 39.476562 -39.429688 40.773438 -41.316406 42.015625 -42.984375 C 43.265625 -44.660156 44.050781 -45.5 44.375 -45.5 C 44.582031 -45.5 44.550781 -45.175781 44.28125 -44.53125 C 44.019531 -43.882812 43.457031 -42.75 42.59375 -41.125 C 41.507812 -39.082031 40.96875 -38.0625 40.96875 -38.0625 C 40.863281 -38.0625 40.753906 -38.003906 40.640625 -37.890625 C 40.535156 -37.671875 40.160156 -37.078125 39.515625 -36.109375 C 38.972656 -35.035156 38.59375 -34.253906 38.375 -33.765625 C 38.164062 -33.273438 38.113281 -33.085938 38.21875 -33.203125 C 38.21875 -33.203125 38.429688 -33.304688 38.859375 -33.515625 C 38.972656 -33.734375 39.191406 -34.140625 39.515625 -34.734375 C 39.835938 -35.328125 40.210938 -35.972656 40.640625 -36.671875 C 41.078125 -37.378906 41.507812 -38 41.9375 -38.53125 C 42.375 -39.070312 42.695312 -39.398438 42.90625 -39.515625 C 43.34375 -39.835938 44.101562 -40.96875 45.1875 -42.90625 C 45.71875 -43.769531 46.144531 -44.523438 46.46875 -45.171875 C 46.800781 -45.828125 47.070312 -46.316406 47.28125 -46.640625 C 47.394531 -46.960938 47.75 -47.582031 48.34375 -48.5 C 48.9375 -49.414062 49.609375 -50.382812 50.359375 -51.40625 C 51.117188 -52.4375 51.820312 -53.382812 52.46875 -54.25 C 53.113281 -55.113281 53.488281 -55.65625 53.59375 -55.875 C 55.320312 -57.8125 56.347656 -59.050781 56.671875 -59.59375 C 56.992188 -60.132812 57.210938 -60.675781 57.328125 -61.21875 C 57.546875 -62.507812 58.140625 -63.75 59.109375 -64.9375 Z M 27.375 -50.03125 C 27.582031 -51.4375 27.632812 -52.191406 27.53125 -52.296875 C 27.425781 -52.410156 27.316406 -52.304688 27.203125 -51.984375 C 27.203125 -51.984375 27.175781 -51.550781 27.125 -50.6875 C 27.070312 -49.820312 27.015625 -48.875 26.953125 -47.84375 C 26.898438 -46.820312 26.847656 -45.851562 26.796875 -44.9375 C 26.742188 -44.019531 26.71875 -43.453125 26.71875 -43.234375 L 26.875 -43.40625 C 26.875 -44.59375 27.039062 -46.800781 27.375 -50.03125 Z M 26.71875 -40.328125 L 26.71875 -41.125 L 26.5625 -40.96875 L 26.5625 -40.640625 C 26.664062 -40.535156 26.71875 -40.429688 26.71875 -40.328125 Z M 49.234375 -31.90625 C 49.234375 -32.113281 48.851562 -31.789062 48.09375 -30.9375 L 44.375 -24.78125 C 44.476562 -24.988281 44.742188 -25.363281 45.171875 -25.90625 C 45.609375 -26.445312 46.257812 -27.3125 47.125 -28.5 C 47.34375 -28.820312 47.582031 -29.171875 47.84375 -29.546875 C 48.113281 -29.929688 48.359375 -30.335938 48.578125 -30.765625 C 49.015625 -31.304688 49.234375 -31.6875 49.234375 -31.90625 Z M 43.40625 -17.171875 C 43.40625 -17.378906 43.457031 -17.484375 43.5625 -17.484375 C 43.78125 -17.484375 43.78125 -17.320312 43.5625 -17 Z M 43.40625 -17.171875 "/></g></g></g><g fill="#f36118" fill-opacity="1"><g transform="translate(205.65348, 112.258315)"><g><path d="M 13.28125 -48.90625 C 13.0625 -49.125 12.84375 -49.234375 12.625 -49.234375 C 12.414062 -49.015625 12.472656 -48.820312 12.796875 -48.65625 C 13.117188 -48.5 13.28125 -48.582031 13.28125 -48.90625 Z M 19.75 -30.125 L 19.75 -30.9375 C 19.539062 -30.394531 19.351562 -29.71875 19.1875 -28.90625 C 19.03125 -28.09375 18.84375 -27.09375 18.625 -25.90625 C 18.300781 -23.75 18.242188 -22.289062 18.453125 -21.53125 L 18.453125 -20.890625 L 18.625 -21.53125 C 18.726562 -21.96875 18.78125 -22.617188 18.78125 -23.484375 C 18.78125 -24.128906 18.890625 -24.5625 19.109375 -24.78125 C 19.429688 -25.101562 19.59375 -26.179688 19.59375 -28.015625 C 19.59375 -28.878906 19.644531 -29.582031 19.75 -30.125 Z M 40.96875 -50.03125 C 39.132812 -50.570312 37.300781 -50.410156 35.46875 -49.546875 C 32.226562 -48.253906 29.097656 -45.71875 26.078125 -41.9375 C 25.753906 -41.613281 25.320312 -41.019531 24.78125 -40.15625 C 24.238281 -39.289062 23.671875 -38.316406 23.078125 -37.234375 C 22.484375 -36.160156 21.941406 -35.164062 21.453125 -34.25 C 20.972656 -33.332031 20.675781 -32.65625 20.5625 -32.21875 C 20.5625 -32.007812 20.535156 -31.523438 20.484375 -30.765625 C 20.429688 -30.015625 20.40625 -28.9375 20.40625 -27.53125 C 20.289062 -24.832031 20.289062 -22.832031 20.40625 -21.53125 C 20.507812 -18.832031 21.375 -16.675781 23 -15.0625 C 25.375 -13.007812 28.234375 -12.144531 31.578125 -12.46875 L 35.296875 -12.46875 C 35.953125 -12.46875 36.738281 -12.519531 37.65625 -12.625 C 38.570312 -12.738281 39.539062 -12.898438 40.5625 -13.109375 C 41.59375 -13.328125 42.535156 -13.625 43.390625 -14 C 44.253906 -14.382812 44.90625 -14.847656 45.34375 -15.390625 C 46.75 -16.785156 47.9375 -18.566406 48.90625 -20.734375 C 49.550781 -22.023438 49.984375 -22.722656 50.203125 -22.828125 C 50.421875 -23.046875 50.582031 -23.375 50.6875 -23.8125 L 51.65625 -26.234375 C 52.09375 -27.097656 52.3125 -28.285156 52.3125 -29.796875 C 52.3125 -31.203125 52.175781 -31.984375 51.90625 -32.140625 C 51.632812 -32.304688 51.390625 -32.820312 51.171875 -33.6875 C 50.203125 -38.113281 48.097656 -41.945312 44.859375 -45.1875 C 43.773438 -46.039062 43.234375 -46.519531 43.234375 -46.625 C 43.234375 -46.738281 43.34375 -46.90625 43.5625 -47.125 C 43.988281 -47.445312 45.125 -47.226562 46.96875 -46.46875 C 47.5 -46.257812 47.976562 -45.992188 48.40625 -45.671875 C 48.84375 -45.347656 49.332031 -45.019531 49.875 -44.6875 C 51.0625 -43.71875 51.707031 -43.175781 51.8125 -43.0625 C 51.925781 -42.957031 52.09375 -43.015625 52.3125 -43.234375 C 52.414062 -43.347656 51.925781 -44 50.84375 -45.1875 C 49.445312 -46.375 47.910156 -47.394531 46.234375 -48.25 C 44.554688 -49.113281 42.800781 -49.707031 40.96875 -50.03125 Z M 30.765625 -63.796875 C 31.085938 -64.015625 31.65625 -64.148438 32.46875 -64.203125 C 33.28125 -64.265625 33.738281 -64.296875 33.84375 -64.296875 C 33.945312 -64.296875 34.160156 -64.296875 34.484375 -64.296875 C 34.816406 -64.296875 35.25 -64.238281 35.78125 -64.125 C 37.507812 -63.90625 38.695312 -63.632812 39.34375 -63.3125 C 39.457031 -63.3125 39.648438 -63.285156 39.921875 -63.234375 C 40.191406 -63.179688 40.429688 -63.046875 40.640625 -62.828125 C 40.859375 -62.617188 41.722656 -62.1875 43.234375 -61.53125 C 44.203125 -60.988281 45.066406 -60.503906 45.828125 -60.078125 C 46.585938 -59.648438 47.179688 -59.164062 47.609375 -58.625 C 49.765625 -56.25 49.925781 -54.304688 48.09375 -52.796875 C 47.664062 -52.578125 47.207031 -52.410156 46.71875 -52.296875 C 46.226562 -52.191406 45.984375 -52.085938 45.984375 -51.984375 C 45.984375 -51.765625 47.332031 -50.46875 50.03125 -48.09375 C 51.550781 -46.800781 53.007812 -45.128906 54.40625 -43.078125 C 55.8125 -41.023438 56.894531 -39.082031 57.65625 -37.25 C 57.976562 -36.269531 58.40625 -35.40625 58.9375 -34.65625 C 59.15625 -34.332031 59.34375 -33.953125 59.5 -33.515625 C 59.664062 -33.085938 59.859375 -32.710938 60.078125 -32.390625 L 60.5625 -31.09375 L 60.5625 -19.75 L 60.234375 -18.296875 C 59.703125 -16.566406 58.945312 -14.863281 57.96875 -13.1875 C 57 -11.519531 55.8125 -9.820312 54.40625 -8.09375 C 51.601562 -5.070312 48.175781 -2.644531 44.125 -0.8125 C 40.082031 1.019531 36.007812 1.9375 31.90625 1.9375 C 27.90625 1.9375 23.960938 1.101562 20.078125 -0.5625 C 16.191406 -2.238281 12.847656 -4.535156 10.046875 -7.453125 C 7.773438 -10.148438 6.207031 -13.816406 5.34375 -18.453125 C 5.238281 -18.992188 5.15625 -19.773438 5.09375 -20.796875 C 5.039062 -21.828125 5.015625 -22.910156 5.015625 -24.046875 C 5.015625 -25.179688 5.015625 -26.257812 5.015625 -27.28125 C 5.015625 -28.3125 5.070312 -29.148438 5.1875 -29.796875 C 5.71875 -32.929688 6.523438 -35.953125 7.609375 -38.859375 C 8.691406 -41.773438 10.039062 -44.742188 11.65625 -47.765625 C 12.09375 -48.523438 12.414062 -49.066406 12.625 -49.390625 C 12.84375 -49.710938 13.03125 -49.925781 13.1875 -50.03125 C 13.351562 -50.144531 13.460938 -50.226562 13.515625 -50.28125 C 13.578125 -50.332031 13.609375 -50.46875 13.609375 -50.6875 C 13.929688 -51.226562 14.332031 -51.847656 14.8125 -52.546875 C 15.300781 -53.242188 15.921875 -54.023438 16.671875 -54.890625 C 18.078125 -56.734375 19.859375 -58.460938 22.015625 -60.078125 C 24.179688 -61.703125 26.394531 -62.78125 28.65625 -63.3125 C 29.738281 -63.425781 30.441406 -63.585938 30.765625 -63.796875 Z M 30.765625 -63.796875 "/></g></g></g><g fill="#f36118" fill-opacity="1"><g transform="translate(271.07395, 112.258315)"><g><path d="M 33.515625 -62.515625 C 34.703125 -62.515625 36.238281 -62.347656 38.125 -62.015625 C 40.019531 -61.691406 41.96875 -61.234375 43.96875 -60.640625 C 45.96875 -60.046875 47.800781 -59.367188 49.46875 -58.609375 C 51.144531 -57.859375 52.253906 -57 52.796875 -56.03125 C 54.191406 -53.976562 54.890625 -52.519531 54.890625 -51.65625 C 54.890625 -50.90625 54.835938 -50.363281 54.734375 -50.03125 C 54.410156 -49.28125 53.65625 -48.363281 52.46875 -47.28125 C 51.28125 -46.207031 50.203125 -45.398438 49.234375 -44.859375 C 48.367188 -44.535156 47.125 -44.210938 45.5 -43.890625 C 44.53125 -43.773438 43.832031 -43.988281 43.40625 -44.53125 C 43.1875 -44.96875 42.96875 -45.238281 42.75 -45.34375 C 41.132812 -46.3125 39.785156 -47.335938 38.703125 -48.421875 C 38.160156 -48.960938 37.671875 -49.394531 37.234375 -49.71875 C 36.804688 -50.039062 36.378906 -50.3125 35.953125 -50.53125 C 35.085938 -50.957031 34.085938 -51.25 32.953125 -51.40625 C 31.816406 -51.570312 30.765625 -51.65625 29.796875 -51.65625 C 27.316406 -51.65625 25.050781 -51.0625 23 -49.875 C 21.15625 -48.582031 20.234375 -47.179688 20.234375 -45.671875 C 20.234375 -44.484375 20.882812 -43.132812 22.1875 -41.625 C 23.269531 -40.539062 25.859375 -38.972656 29.953125 -36.921875 C 32.984375 -35.515625 35.550781 -34.21875 37.65625 -33.03125 C 39.757812 -31.84375 41.457031 -30.816406 42.75 -29.953125 C 45.5625 -28.015625 47.476562 -26.207031 48.5 -24.53125 C 49.519531 -22.863281 50.140625 -20.675781 50.359375 -17.96875 L 50.203125 -16.671875 L 50.03125 -17.171875 C 49.925781 -17.054688 49.875 -16.785156 49.875 -16.359375 C 49.769531 -14.523438 48.90625 -12.472656 47.28125 -10.203125 C 46.414062 -8.691406 45.09375 -7.257812 43.3125 -5.90625 C 41.53125 -4.5625 39.585938 -3.398438 37.484375 -2.421875 C 35.378906 -1.453125 33.25 -0.671875 31.09375 -0.078125 C 28.9375 0.515625 26.9375 0.8125 25.09375 0.8125 C 22.1875 0.8125 19.328125 0.328125 16.515625 -0.640625 C 13.710938 -1.617188 11.066406 -2.863281 8.578125 -4.375 C 7.929688 -4.695312 6.929688 -5.234375 5.578125 -5.984375 C 4.234375 -6.742188 3.398438 -7.335938 3.078125 -7.765625 C 2.210938 -9.171875 2.585938 -10.898438 4.203125 -12.953125 C 4.742188 -13.710938 5.5 -14.414062 6.46875 -15.0625 C 7.445312 -15.707031 8.148438 -16.03125 8.578125 -16.03125 C 9.117188 -16.03125 9.066406 -15.546875 8.421875 -14.578125 C 7.335938 -13.066406 6.90625 -12.039062 7.125 -11.5 C 7.226562 -11.175781 8.414062 -10.632812 10.6875 -9.875 C 12.300781 -9.332031 13.351562 -9.113281 13.84375 -9.21875 C 14.332031 -9.332031 14.738281 -9.335938 15.0625 -9.234375 C 15.8125 -9.015625 17.269531 -8.957031 19.4375 -9.0625 C 21.695312 -9.175781 23.421875 -9.335938 24.609375 -9.546875 C 25.796875 -9.878906 27.144531 -10.285156 28.65625 -10.765625 C 30.175781 -11.253906 31.609375 -11.875 32.953125 -12.625 C 34.304688 -13.382812 35.46875 -14.332031 36.4375 -15.46875 C 37.40625 -16.601562 37.890625 -17.867188 37.890625 -19.265625 C 37.890625 -21.109375 37.082031 -22.835938 35.46875 -24.453125 C 32.65625 -26.929688 28.660156 -29.253906 23.484375 -31.421875 C 22.078125 -31.953125 20.507812 -32.625 18.78125 -33.4375 C 17.050781 -34.25 15.429688 -35.191406 13.921875 -36.265625 C 12.410156 -37.347656 11.113281 -38.617188 10.03125 -40.078125 C 8.957031 -41.535156 8.367188 -43.128906 8.265625 -44.859375 C 8.265625 -45.722656 8.476562 -46.75 8.90625 -47.9375 C 9.769531 -51.0625 11.335938 -53.597656 13.609375 -55.546875 C 16.191406 -58.023438 19.265625 -59.804688 22.828125 -60.890625 C 26.390625 -61.972656 29.953125 -62.515625 33.515625 -62.515625 Z M 33.515625 -62.515625 "/></g></g></g><g fill="#f36118" fill-opacity="1"><g transform="translate(328.55979, 112.258315)"><g><path d="M 36.765625 -60.71875 C 37.515625 -60.71875 37.945312 -60.882812 38.0625 -61.21875 C 38.488281 -61.425781 40.429688 -61.53125 43.890625 -61.53125 C 47.335938 -61.53125 50.300781 -61.070312 52.78125 -60.15625 C 55.269531 -59.238281 57.8125 -57.539062 60.40625 -55.0625 C 62.457031 -53.007812 64.101562 -50.765625 65.34375 -48.328125 C 66.582031 -45.898438 67.3125 -43.285156 67.53125 -40.484375 C 67.632812 -39.296875 67.660156 -38.160156 67.609375 -37.078125 C 67.554688 -36.003906 67.421875 -34.875 67.203125 -33.6875 C 67.097656 -32.707031 66.9375 -31.894531 66.71875 -31.25 C 66.71875 -30.5 66.445312 -29.445312 65.90625 -28.09375 C 65.363281 -26.75 64.710938 -25.347656 63.953125 -23.890625 C 63.203125 -22.429688 62.421875 -21.050781 61.609375 -19.75 C 60.804688 -18.457031 60.132812 -17.488281 59.59375 -16.84375 C 59.269531 -16.519531 58.972656 -16.164062 58.703125 -15.78125 C 58.429688 -15.40625 58.1875 -15.054688 57.96875 -14.734375 C 57.539062 -13.765625 56.675781 -12.738281 55.375 -11.65625 C 54.082031 -10.582031 52.679688 -9.554688 51.171875 -8.578125 C 49.660156 -7.609375 48.117188 -6.769531 46.546875 -6.0625 C 44.984375 -5.363281 43.609375 -4.910156 42.421875 -4.703125 C 40.804688 -4.367188 38.835938 -4.148438 36.515625 -4.046875 C 34.191406 -3.941406 31.519531 -3.890625 28.5 -3.890625 L 21.375 -3.890625 L 20.890625 -3.40625 C 20.671875 -3.1875 20.5625 -2.753906 20.5625 -2.109375 C 20.238281 -0.804688 19.941406 0.566406 19.671875 2.015625 C 19.398438 3.472656 19.210938 4.851562 19.109375 6.15625 C 19.003906 6.695312 18.953125 7.128906 18.953125 7.453125 C 18.953125 7.773438 18.894531 8.046875 18.78125 8.265625 C 18.5625 9.117188 18.507812 9.765625 18.625 10.203125 C 18.625 11.066406 18.515625 11.660156 18.296875 11.984375 C 18.078125 12.523438 18.078125 12.796875 18.296875 12.796875 C 18.398438 12.796875 18.453125 13.007812 18.453125 13.4375 C 18.347656 14.082031 18.269531 14.566406 18.21875 14.890625 C 18.164062 15.222656 18.140625 15.441406 18.140625 15.546875 C 17.921875 16.628906 17.890625 17.25 18.046875 17.40625 C 18.210938 17.570312 18.515625 17.65625 18.953125 17.65625 C 19.703125 17.65625 20.238281 17.273438 20.5625 16.515625 L 20.40625 20.5625 C 20.289062 23.257812 19.96875 25.203125 19.4375 26.390625 C 19.4375 26.503906 19.328125 27.960938 19.109375 30.765625 L 19.109375 34.5 L 17.8125 35.46875 C 17.269531 35.789062 16.863281 36.003906 16.59375 36.109375 C 16.320312 36.222656 16.132812 36.332031 16.03125 36.4375 C 15.601562 36.65625 15.007812 36.765625 14.25 36.765625 C 13.28125 36.765625 12.203125 36.332031 11.015625 35.46875 C 10.796875 35.25 10.523438 35.082031 10.203125 34.96875 C 9.878906 34.863281 9.609375 34.757812 9.390625 34.65625 C 8.203125 34.113281 7.445312 33.46875 7.125 32.71875 C 7.019531 32.5 6.96875 31.578125 6.96875 29.953125 C 7.175781 25.523438 7.875 20.960938 9.0625 16.265625 C 10.25 11.578125 11.4375 7.128906 12.625 2.921875 C 12.84375 2.265625 13.03125 1.585938 13.1875 0.890625 C 13.351562 0.191406 13.546875 -0.425781 13.765625 -0.96875 C 14.085938 -2.59375 14.300781 -3.457031 14.40625 -3.5625 C 15.0625 -4.207031 14.414062 -4.691406 12.46875 -5.015625 C 9.988281 -5.554688 8.691406 -6.367188 8.578125 -7.453125 C 8.578125 -7.773438 8.6875 -8.125 8.90625 -8.5 C 9.125 -8.875 10.257812 -9.007812 12.3125 -8.90625 C 13.5 -8.800781 14.304688 -8.878906 14.734375 -9.140625 C 15.171875 -9.410156 15.441406 -10.140625 15.546875 -11.328125 C 15.648438 -11.867188 15.8125 -12.734375 16.03125 -13.921875 C 16.25 -15.109375 16.519531 -16.726562 16.84375 -18.78125 C 17.164062 -20.507812 17.351562 -21.78125 17.40625 -22.59375 C 17.457031 -23.40625 17.429688 -23.914062 17.328125 -24.125 C 17.222656 -24.125 17.113281 -24.070312 17 -23.96875 C 16.675781 -23.96875 16.351562 -23.914062 16.03125 -23.8125 C 14.519531 -23.476562 13.085938 -24.015625 11.734375 -25.421875 C 10.390625 -26.828125 9.125 -28.445312 7.9375 -30.28125 C 7.5 -30.820312 7.117188 -31.171875 6.796875 -31.328125 C 6.472656 -31.492188 6.175781 -31.65625 5.90625 -31.8125 C 5.632812 -31.976562 5.414062 -32.25 5.25 -32.625 C 5.09375 -33.007812 5.015625 -33.6875 5.015625 -34.65625 C 5.015625 -35.84375 4.90625 -36.894531 4.6875 -37.8125 C 4.476562 -38.726562 4.425781 -39.671875 4.53125 -40.640625 C 4.644531 -41.503906 4.863281 -42.285156 5.1875 -42.984375 C 5.507812 -43.691406 5.882812 -44.316406 6.3125 -44.859375 C 6.632812 -45.285156 6.90625 -45.6875 7.125 -46.0625 C 7.34375 -46.445312 7.554688 -46.800781 7.765625 -47.125 C 7.984375 -47.550781 8.414062 -48.09375 9.0625 -48.75 C 9.382812 -49.28125 10.113281 -49.867188 11.25 -50.515625 C 12.382812 -51.171875 13.597656 -51.847656 14.890625 -52.546875 C 16.191406 -53.242188 17.460938 -53.890625 18.703125 -54.484375 C 19.941406 -55.078125 20.882812 -55.484375 21.53125 -55.703125 C 22.289062 -55.921875 23.179688 -56.21875 24.203125 -56.59375 C 25.234375 -56.96875 26.34375 -57.425781 27.53125 -57.96875 C 29.6875 -58.832031 31.195312 -59.375 32.0625 -59.59375 C 34.007812 -60.34375 35.578125 -60.71875 36.765625 -60.71875 Z M 53.921875 -44.53125 C 53.171875 -44.851562 51.984375 -45.015625 50.359375 -45.015625 C 49.492188 -45.015625 48.679688 -44.957031 47.921875 -44.84375 C 47.171875 -44.738281 46.582031 -44.582031 46.15625 -44.375 C 45.9375 -44.257812 45.632812 -44.175781 45.25 -44.125 C 44.875 -44.070312 44.472656 -43.9375 44.046875 -43.71875 C 40.585938 -42.53125 37.398438 -40.9375 34.484375 -38.9375 C 31.578125 -36.945312 29.257812 -34.222656 27.53125 -30.765625 C 27.09375 -30.117188 26.660156 -29.203125 26.234375 -28.015625 C 25.804688 -26.828125 25.398438 -25.554688 25.015625 -24.203125 C 24.640625 -22.859375 24.316406 -21.5625 24.046875 -20.3125 C 23.773438 -19.070312 23.53125 -18.023438 23.3125 -17.171875 C 22.988281 -15.328125 22.664062 -13.921875 22.34375 -12.953125 C 22.132812 -12.203125 21.972656 -11.554688 21.859375 -11.015625 C 22.179688 -10.691406 24.070312 -11.066406 27.53125 -12.140625 C 29.363281 -12.679688 31.441406 -13.519531 33.765625 -14.65625 C 36.085938 -15.789062 38.648438 -17.113281 41.453125 -18.625 C 46.421875 -21.320312 50.796875 -26.613281 54.578125 -34.5 C 55.765625 -36.875 56.359375 -38.816406 56.359375 -40.328125 C 56.359375 -41.191406 56.113281 -42.050781 55.625 -42.90625 C 55.132812 -43.769531 54.566406 -44.3125 53.921875 -44.53125 Z M 53.921875 -44.53125 "/></g></g></g><g fill="#f36118" fill-opacity="1"><g transform="translate(399.000151, 112.258315)"><g><path d="M 34.65625 -64.609375 C 35.84375 -65.472656 36.546875 -65.53125 36.765625 -64.78125 C 36.972656 -64.238281 37.507812 -63.75 38.375 -63.3125 C 38.695312 -63.101562 39.128906 -62.671875 39.671875 -62.015625 C 39.890625 -61.804688 40.078125 -61.617188 40.234375 -61.453125 C 40.398438 -61.296875 40.535156 -61.160156 40.640625 -61.046875 C 41.179688 -60.941406 41.507812 -59.972656 41.625 -58.140625 C 41.726562 -55.765625 41.132812 -53.65625 39.84375 -51.8125 C 39.082031 -50.84375 38.109375 -50.304688 36.921875 -50.203125 C 35.953125 -49.984375 35.0625 -49.789062 34.25 -49.625 C 33.4375 -49.46875 32.707031 -49.28125 32.0625 -49.0625 C 30.769531 -48.632812 29.691406 -48.285156 28.828125 -48.015625 C 27.960938 -47.742188 27.3125 -47.394531 26.875 -46.96875 C 26.769531 -46.96875 26.445312 -46.75 25.90625 -46.3125 C 25.363281 -45.882812 24.769531 -45.398438 24.125 -44.859375 C 23.476562 -44.316406 22.882812 -43.800781 22.34375 -43.3125 C 21.800781 -42.832031 21.476562 -42.535156 21.375 -42.421875 C 19.539062 -39.722656 18.378906 -36.804688 17.890625 -33.671875 C 17.410156 -30.546875 17.0625 -27.421875 16.84375 -24.296875 C 16.84375 -20.941406 16.785156 -18.992188 16.671875 -18.453125 C 16.347656 -16.191406 16.296875 -14.789062 16.515625 -14.25 C 16.734375 -13.707031 17.273438 -13.867188 18.140625 -14.734375 C 18.566406 -15.171875 18.890625 -15.390625 19.109375 -15.390625 C 19.429688 -15.390625 19.210938 -14.035156 18.453125 -11.328125 C 18.023438 -10.140625 17.675781 -8.925781 17.40625 -7.6875 C 17.132812 -6.445312 16.945312 -5.234375 16.84375 -4.046875 C 16.726562 -0.585938 16.132812 1.625 15.0625 2.59375 C 14.300781 3.132812 13.546875 3.347656 12.796875 3.234375 C 12.472656 3.234375 11.335938 2.695312 9.390625 1.625 C 8.523438 1.082031 7.796875 0.648438 7.203125 0.328125 C 6.609375 0.00390625 6.203125 -0.265625 5.984375 -0.484375 C 5.234375 -1.242188 4.859375 -2.429688 4.859375 -4.046875 C 4.859375 -5.234375 4.960938 -6.066406 5.171875 -6.546875 C 5.390625 -7.035156 5.5 -7.710938 5.5 -8.578125 C 5.5 -9.117188 5.523438 -9.710938 5.578125 -10.359375 C 5.640625 -11.003906 5.722656 -11.757812 5.828125 -12.625 C 6.265625 -18.457031 6.585938 -23.375 6.796875 -27.375 C 7.015625 -30.070312 7.125 -31.472656 7.125 -31.578125 C 7.226562 -31.796875 7.359375 -32.710938 7.515625 -34.328125 C 7.679688 -35.953125 7.816406 -37.757812 7.921875 -39.75 C 8.035156 -41.75 8.144531 -43.640625 8.25 -45.421875 C 8.363281 -47.203125 8.421875 -48.414062 8.421875 -49.0625 C 8.421875 -49.707031 8.53125 -50.03125 8.75 -50.03125 C 8.957031 -50.03125 8.847656 -50.570312 8.421875 -51.65625 C 8.203125 -52.414062 8.09375 -53.304688 8.09375 -54.328125 C 8.09375 -55.359375 7.984375 -56.035156 7.765625 -56.359375 C 7.660156 -56.679688 7.609375 -57.113281 7.609375 -57.65625 C 7.609375 -58.082031 7.5 -58.40625 7.28125 -58.625 C 6.957031 -59.488281 7.015625 -60.132812 7.453125 -60.5625 C 7.878906 -61.320312 8.414062 -61.375 9.0625 -60.71875 C 9.5 -60.289062 9.71875 -60.128906 9.71875 -60.234375 C 9.820312 -60.347656 9.875 -60.941406 9.875 -62.015625 C 9.988281 -63.097656 10.097656 -63.640625 10.203125 -63.640625 C 10.304688 -63.640625 10.738281 -63.265625 11.5 -62.515625 C 12.6875 -61.316406 13.875 -60.828125 15.0625 -61.046875 C 15.601562 -61.046875 16.304688 -60.9375 17.171875 -60.71875 C 18.566406 -59.96875 19.425781 -59 19.75 -57.8125 C 19.863281 -57.375 20.132812 -56.941406 20.5625 -56.515625 C 21 -56.085938 21.320312 -55.875 21.53125 -55.875 C 21.75 -55.875 22.128906 -56.171875 22.671875 -56.765625 C 23.210938 -57.359375 23.484375 -57.707031 23.484375 -57.8125 C 23.484375 -57.914062 23.59375 -58.078125 23.8125 -58.296875 C 24.132812 -58.515625 24.425781 -58.726562 24.6875 -58.9375 C 24.957031 -59.15625 25.257812 -59.320312 25.59375 -59.4375 C 25.800781 -59.4375 25.984375 -59.566406 26.140625 -59.828125 C 26.304688 -60.097656 26.878906 -60.503906 27.859375 -61.046875 C 29.472656 -61.910156 30.601562 -62.5625 31.25 -63 C 31.46875 -63.320312 31.875 -63.5625 32.46875 -63.71875 C 33.0625 -63.882812 33.789062 -64.179688 34.65625 -64.609375 Z M 34.65625 -64.609375 "/></g></g></g><g fill="#f36118" fill-opacity="1"><g transform="translate(441.750143, 112.258315)"><g><path d="M 8.90625 -93.921875 C 9.332031 -94.460938 9.789062 -94.707031 10.28125 -94.65625 C 10.769531 -94.601562 11.015625 -94.46875 11.015625 -94.25 C 11.222656 -93.707031 11.597656 -93.648438 12.140625 -94.078125 C 12.578125 -94.515625 13.390625 -94.570312 14.578125 -94.25 C 14.785156 -94.132812 15.050781 -94.023438 15.375 -93.921875 C 15.707031 -93.816406 15.976562 -93.707031 16.1875 -93.59375 C 19.101562 -92.519531 21.535156 -91.984375 23.484375 -91.984375 C 24.128906 -91.984375 25.097656 -91.765625 26.390625 -91.328125 C 27.898438 -91.003906 29.035156 -90.785156 29.796875 -90.671875 C 30.554688 -90.566406 31.097656 -90.300781 31.421875 -89.875 C 31.628906 -89.550781 31.628906 -89.28125 31.421875 -89.0625 C 30.984375 -88.632812 29.847656 -87.828125 28.015625 -86.640625 C 26.929688 -85.878906 26.125 -84.960938 25.59375 -83.890625 C 25.257812 -83.234375 25.203125 -82.640625 25.421875 -82.109375 C 25.640625 -81.773438 25.640625 -81.34375 25.421875 -80.8125 C 24.671875 -78.863281 23.59375 -76.863281 22.1875 -74.8125 C 20.78125 -72.757812 18.890625 -71.734375 16.515625 -71.734375 C 15.109375 -71.734375 13.8125 -72.113281 12.625 -72.875 C 10.25 -73.945312 8.738281 -75.507812 8.09375 -77.5625 C 7.875 -78.21875 7.765625 -78.546875 7.765625 -78.546875 C 7.765625 -78.648438 7.765625 -78.753906 7.765625 -78.859375 C 7.765625 -79.179688 7.765625 -79.5625 7.765625 -80 C 7.660156 -80.425781 7.609375 -80.9375 7.609375 -81.53125 C 7.609375 -82.125 7.609375 -82.800781 7.609375 -83.5625 C 7.390625 -85.070312 7.226562 -86.226562 7.125 -87.03125 C 7.019531 -87.84375 6.910156 -88.359375 6.796875 -88.578125 L 6.3125 -89.0625 L 6.796875 -90.359375 C 7.335938 -91.867188 8.039062 -93.054688 8.90625 -93.921875 Z M 12.140625 -61.375 C 12.785156 -62.019531 13.21875 -62.34375 13.4375 -62.34375 C 13.65625 -62.34375 14.003906 -62.097656 14.484375 -61.609375 C 14.972656 -61.128906 15.328125 -60.941406 15.546875 -61.046875 C 16.296875 -61.265625 16.835938 -61.320312 17.171875 -61.21875 C 17.703125 -61.101562 18.238281 -60.75 18.78125 -60.15625 C 19.320312 -59.5625 19.863281 -58.859375 20.40625 -58.046875 C 20.945312 -57.242188 21.429688 -56.460938 21.859375 -55.703125 C 22.296875 -54.953125 22.566406 -54.304688 22.671875 -53.765625 C 22.992188 -52.140625 22.671875 -48.144531 21.703125 -41.78125 C 21.585938 -40.8125 21.503906 -40.03125 21.453125 -39.4375 C 21.398438 -38.84375 21.347656 -38.273438 21.296875 -37.734375 C 21.242188 -37.191406 21.1875 -36.625 21.125 -36.03125 C 21.070312 -35.4375 20.941406 -34.707031 20.734375 -33.84375 C 20.191406 -30.71875 19.757812 -27.5625 19.4375 -24.375 C 19.113281 -21.1875 18.84375 -18.023438 18.625 -14.890625 C 18.726562 -12.734375 18.722656 -10.953125 18.609375 -9.546875 C 18.503906 -8.148438 18.398438 -7.019531 18.296875 -6.15625 C 18.191406 -5.71875 18.140625 -4.742188 18.140625 -3.234375 C 18.140625 -1.617188 17.84375 -0.566406 17.25 -0.078125 C 16.65625 0.398438 15.976562 0.535156 15.21875 0.328125 C 14.46875 0.00390625 14.0625 0.164062 14 0.8125 C 13.945312 1.457031 13.488281 1.78125 12.625 1.78125 C 11.976562 1.78125 11.222656 1.457031 10.359375 0.8125 C 10.253906 0.164062 9.820312 -0.15625 9.0625 -0.15625 C 8.414062 -0.15625 7.875 -0.367188 7.4375 -0.796875 C 7.007812 -1.234375 6.632812 -1.5625 6.3125 -1.78125 C 5.5625 -2.539062 5.128906 -4.429688 5.015625 -7.453125 C 4.910156 -12.203125 4.859375 -16.273438 4.859375 -19.671875 C 4.859375 -23.078125 4.96875 -25.96875 5.1875 -28.34375 C 5.1875 -28.988281 5.238281 -29.847656 5.34375 -30.921875 C 5.445312 -32.003906 5.523438 -33.140625 5.578125 -34.328125 C 5.640625 -35.515625 5.722656 -36.644531 5.828125 -37.71875 C 5.929688 -38.800781 5.984375 -39.671875 5.984375 -40.328125 C 6.097656 -41.835938 6.316406 -43.238281 6.640625 -44.53125 C 6.960938 -45.820312 7.234375 -47.007812 7.453125 -48.09375 C 7.660156 -48.738281 7.765625 -49.359375 7.765625 -49.953125 C 7.765625 -50.546875 7.820312 -51.222656 7.9375 -51.984375 C 8.039062 -53.054688 8.3125 -54.082031 8.75 -55.0625 C 9.070312 -56.132812 9.5 -57.179688 10.03125 -58.203125 C 10.570312 -59.234375 11.273438 -60.289062 12.140625 -61.375 Z M 12.140625 -61.375 "/></g></g></g><g fill="#f36118" fill-opacity="1"><g transform="translate(470.574024, 112.258315)"><g><path d="M 44.203125 -63.3125 C 45.285156 -63.101562 46.632812 -62.566406 48.25 -61.703125 C 49.875 -60.835938 51.117188 -59.972656 51.984375 -59.109375 C 53.597656 -57.484375 54.515625 -55 54.734375 -51.65625 C 54.953125 -50.363281 54.953125 -49.609375 54.734375 -49.390625 C 54.515625 -49.171875 54.082031 -48.195312 53.4375 -46.46875 C 53.332031 -45.9375 53.0625 -45.101562 52.625 -43.96875 C 52.195312 -42.832031 51.925781 -42.101562 51.8125 -41.78125 C 50.195312 -37.351562 48.820312 -32.953125 47.6875 -28.578125 C 46.550781 -24.210938 45.984375 -19.707031 45.984375 -15.0625 L 45.984375 -11.171875 L 46.46875 -11.828125 C 46.800781 -12.035156 47.503906 -13.222656 48.578125 -15.390625 C 49.546875 -17.429688 50.140625 -18.453125 50.359375 -18.453125 C 50.578125 -18.453125 50.660156 -18.15625 50.609375 -17.5625 C 50.554688 -16.96875 50.363281 -16.347656 50.03125 -15.703125 C 49.820312 -15.054688 49.769531 -14.597656 49.875 -14.328125 C 49.976562 -14.054688 50.140625 -14.140625 50.359375 -14.578125 L 50.6875 -15.21875 C 50.90625 -15.65625 51.09375 -16.085938 51.25 -16.515625 C 51.414062 -16.953125 51.550781 -17.273438 51.65625 -17.484375 C 51.875 -17.921875 52.222656 -18.703125 52.703125 -19.828125 C 53.191406 -20.960938 53.757812 -22.097656 54.40625 -23.234375 C 55.050781 -24.367188 55.695312 -25.367188 56.34375 -26.234375 C 57 -27.097656 57.597656 -27.53125 58.140625 -27.53125 C 58.460938 -27.53125 58.625 -27.421875 58.625 -27.203125 C 58.945312 -26.335938 58.726562 -25.3125 57.96875 -24.125 C 57.101562 -22.394531 56.078125 -19.316406 54.890625 -14.890625 C 54.890625 -14.566406 54.675781 -13.707031 54.25 -12.3125 C 52.957031 -7.445312 52.3125 -4.367188 52.3125 -3.078125 C 52.3125 -1.890625 51.796875 -0.703125 50.765625 0.484375 C 49.742188 1.671875 48.582031 2.265625 47.28125 2.265625 C 46.207031 2.265625 45.101562 1.96875 43.96875 1.375 C 42.832031 0.78125 41.75 0 40.71875 -0.96875 C 39.695312 -1.9375 38.78125 -2.960938 37.96875 -4.046875 C 37.164062 -5.128906 36.601562 -6.15625 36.28125 -7.125 C 36.0625 -7.664062 35.84375 -8.851562 35.625 -10.6875 C 35.625 -11.445312 35.625 -12.125 35.625 -12.71875 C 35.625 -13.3125 35.570312 -13.710938 35.46875 -13.921875 C 35.351562 -14.140625 35.296875 -14.707031 35.296875 -15.625 C 35.296875 -16.539062 35.296875 -17.753906 35.296875 -19.265625 L 35.296875 -25.59375 C 35.515625 -26.78125 35.703125 -27.425781 35.859375 -27.53125 C 36.023438 -27.632812 36.164062 -27.6875 36.28125 -27.6875 L 36.28125 -27.859375 C 36.164062 -27.960938 36.054688 -28.015625 35.953125 -28.015625 C 35.628906 -28.234375 35.519531 -28.503906 35.625 -28.828125 C 35.726562 -29.148438 35.78125 -29.957031 35.78125 -31.25 C 35.894531 -31.894531 35.953125 -32.429688 35.953125 -32.859375 C 35.953125 -33.296875 36.003906 -33.625 36.109375 -33.84375 C 36.328125 -34.164062 36.328125 -34.8125 36.109375 -35.78125 C 35.890625 -36.757812 35.835938 -37.410156 35.953125 -37.734375 C 35.953125 -37.734375 35.976562 -37.972656 36.03125 -38.453125 C 36.082031 -38.941406 36.109375 -39.484375 36.109375 -40.078125 C 36.109375 -40.671875 36.109375 -41.207031 36.109375 -41.6875 C 36.109375 -42.175781 36.109375 -42.476562 36.109375 -42.59375 C 36.109375 -43.34375 36.21875 -43.9375 36.4375 -44.375 C 36.65625 -45.019531 36.816406 -46.207031 36.921875 -47.9375 C 37.023438 -49.445312 36.992188 -50.304688 36.828125 -50.515625 C 36.671875 -50.734375 36.21875 -50.84375 35.46875 -50.84375 C 34.601562 -50.632812 33.628906 -50.175781 32.546875 -49.46875 C 31.472656 -48.769531 30.609375 -48.097656 29.953125 -47.453125 C 25.203125 -41.835938 22.148438 -35.707031 20.796875 -29.0625 C 19.453125 -22.425781 18.78125 -15.546875 18.78125 -8.421875 C 18.78125 -3.453125 18.726562 -0.695312 18.625 -0.15625 C 18.40625 0.707031 18.1875 1.191406 17.96875 1.296875 L 17.8125 1.296875 C 17.59375 1.515625 17 1.488281 16.03125 1.21875 C 15.0625 0.945312 14.304688 0.648438 13.765625 0.328125 C 13.117188 -0.210938 12.523438 -0.484375 11.984375 -0.484375 C 11.765625 -0.378906 11.441406 -0.429688 11.015625 -0.640625 C 7.992188 -2.910156 6.15625 -4.640625 5.5 -5.828125 C 5.175781 -6.691406 4.988281 -7.90625 4.9375 -9.46875 C 4.882812 -11.039062 4.96875 -12.523438 5.1875 -13.921875 C 5.9375 -19.210938 6.421875 -22.722656 6.640625 -24.453125 C 7.179688 -27.796875 7.664062 -30.492188 8.09375 -32.546875 C 9.28125 -37.410156 9.929688 -40.703125 10.046875 -42.421875 C 10.046875 -42.960938 10.148438 -43.773438 10.359375 -44.859375 C 10.578125 -45.722656 10.6875 -46.367188 10.6875 -46.796875 C 10.6875 -47.234375 10.796875 -47.503906 11.015625 -47.609375 C 11.441406 -47.710938 11.492188 -48.519531 11.171875 -50.03125 C 10.628906 -52.40625 9.875 -53.8125 8.90625 -54.25 C 8.582031 -54.570312 8.363281 -54.8125 8.25 -54.96875 C 8.144531 -55.132812 8.203125 -55.757812 8.421875 -56.84375 C 8.742188 -58.457031 9.007812 -59.34375 9.21875 -59.5 C 9.4375 -59.664062 9.925781 -60.128906 10.6875 -60.890625 C 11.769531 -61.972656 13.007812 -62.023438 14.40625 -61.046875 C 14.84375 -60.828125 15.222656 -60.632812 15.546875 -60.46875 C 15.867188 -60.3125 16.191406 -60.179688 16.515625 -60.078125 C 19.328125 -59.535156 22.132812 -58.023438 24.9375 -55.546875 C 25.695312 -55.003906 26.101562 -54.734375 26.15625 -54.734375 C 26.207031 -54.734375 26.285156 -54.894531 26.390625 -55.21875 C 26.609375 -55.65625 27.226562 -56.222656 28.25 -56.921875 C 29.28125 -57.617188 30.414062 -58.316406 31.65625 -59.015625 C 32.894531 -59.722656 34.109375 -60.347656 35.296875 -60.890625 C 36.484375 -61.429688 37.347656 -61.753906 37.890625 -61.859375 C 38.109375 -61.960938 38.378906 -62.066406 38.703125 -62.171875 C 39.023438 -62.285156 39.40625 -62.398438 39.84375 -62.515625 C 40.914062 -62.941406 41.5625 -63.128906 41.78125 -63.078125 C 42 -63.023438 42.160156 -63.101562 42.265625 -63.3125 C 42.265625 -63.53125 42.453125 -63.582031 42.828125 -63.46875 C 43.210938 -63.363281 43.671875 -63.3125 44.203125 -63.3125 Z M 44.203125 -63.3125 "/></g></g></g><g fill="#f36118" fill-opacity="1"><g transform="translate(531.622318, 112.258315)"><g><path d="M 35.140625 -62.828125 C 36.109375 -63.148438 37.40625 -62.878906 39.03125 -62.015625 C 41.1875 -60.941406 42.910156 -59.8125 44.203125 -58.625 C 45.503906 -57.4375 46.15625 -55.597656 46.15625 -53.109375 L 46.3125 -50.6875 L 47.28125 -52.46875 C 47.820312 -53.4375 48.550781 -54.328125 49.46875 -55.140625 C 50.382812 -55.953125 51.4375 -56.359375 52.625 -56.359375 C 54.570312 -56.359375 56.84375 -55.007812 59.4375 -52.3125 C 60.726562 -50.6875 61.425781 -49.007812 61.53125 -47.28125 C 61.53125 -46.414062 61.257812 -45.175781 60.71875 -43.5625 C 60.613281 -43.125 60.398438 -42.394531 60.078125 -41.375 C 59.753906 -40.351562 59.398438 -39.273438 59.015625 -38.140625 C 58.640625 -37.003906 58.316406 -35.921875 58.046875 -34.890625 C 57.785156 -33.867188 57.597656 -33.195312 57.484375 -32.875 C 56.515625 -29.632812 56.03125 -26.828125 56.03125 -24.453125 C 56.25 -23.585938 56.570312 -23.15625 57 -23.15625 L 57.65625 -23.8125 C 58.625 -24.882812 59.863281 -25.582031 61.375 -25.90625 C 61.695312 -26.125 61.96875 -26.257812 62.1875 -26.3125 C 62.40625 -26.363281 62.617188 -26.445312 62.828125 -26.5625 C 62.941406 -26.5625 63.050781 -26.613281 63.15625 -26.71875 C 63.695312 -26.613281 63.375 -26.128906 62.1875 -25.265625 C 61 -24.503906 60 -23.691406 59.1875 -22.828125 C 58.375 -21.960938 57.644531 -20.9375 57 -19.75 C 56.457031 -18.5625 56 -17.585938 55.625 -16.828125 C 55.25 -16.078125 55.113281 -15.597656 55.21875 -15.390625 C 55.4375 -14.628906 55.0625 -12.253906 54.09375 -8.265625 C 53.007812 -3.941406 51.601562 2.644531 49.875 11.5 C 49.65625 12.570312 49.4375 13.515625 49.21875 14.328125 C 49.007812 15.140625 48.796875 16.085938 48.578125 17.171875 C 48.472656 17.703125 48.421875 18.1875 48.421875 18.625 C 48.421875 18.726562 48.148438 19.753906 47.609375 21.703125 C 47.390625 22.890625 47.171875 23.75 46.953125 24.28125 C 46.742188 24.820312 46.582031 25.203125 46.46875 25.421875 C 46.363281 25.859375 46.253906 26.179688 46.140625 26.390625 C 46.035156 26.609375 45.878906 26.9375 45.671875 27.375 C 45.453125 27.800781 45.257812 28.203125 45.09375 28.578125 C 44.9375 28.960938 44.75 29.421875 44.53125 29.953125 C 43.988281 31.796875 43.125 32.445312 41.9375 31.90625 C 41.289062 31.6875 40.804688 31.6875 40.484375 31.90625 C 40.160156 32.113281 39.78125 32.300781 39.34375 32.46875 C 38.914062 32.632812 38.429688 32.820312 37.890625 33.03125 C 37.347656 33.144531 36.457031 33.203125 35.21875 33.203125 C 33.976562 33.203125 32.28125 33.203125 30.125 33.203125 C 27.53125 33.304688 25.53125 33.332031 24.125 33.28125 C 22.726562 33.226562 21.921875 33.144531 21.703125 33.03125 C 21.265625 32.707031 19.914062 32.546875 17.65625 32.546875 C 16.25 32.441406 14.925781 32.253906 13.6875 31.984375 C 12.445312 31.710938 11.285156 31.253906 10.203125 30.609375 C 9.117188 30.066406 8.304688 29.523438 7.765625 28.984375 C 7.234375 28.441406 6.859375 27.90625 6.640625 27.375 C 6.316406 26.394531 6.425781 25.257812 6.96875 23.96875 C 7.175781 23.53125 7.820312 22.828125 8.90625 21.859375 C 9.988281 20.890625 11.203125 19.863281 12.546875 18.78125 C 13.898438 17.707031 15.171875 16.707031 16.359375 15.78125 C 17.546875 14.863281 18.351562 14.242188 18.78125 13.921875 C 19.425781 13.378906 20.179688 12.863281 21.046875 12.375 C 21.910156 11.894531 22.832031 11.222656 23.8125 10.359375 C 25.101562 9.285156 26.445312 8.207031 27.84375 7.125 C 29.25 6.039062 30.707031 5.066406 32.21875 4.203125 C 34.0625 3.015625 35.519531 2.039062 36.59375 1.28125 C 37.675781 0.53125 38.429688 -0.00390625 38.859375 -0.328125 C 39.078125 -0.429688 39.265625 -0.5625 39.421875 -0.71875 C 39.585938 -0.882812 39.832031 -1.078125 40.15625 -1.296875 C 40.695312 -1.722656 40.992188 -2.097656 41.046875 -2.421875 C 41.097656 -2.753906 41.234375 -2.972656 41.453125 -3.078125 C 41.890625 -3.078125 42.160156 -3.289062 42.265625 -3.71875 C 42.367188 -4.15625 42.316406 -4.484375 42.109375 -4.703125 L 41.625 -5.34375 L 42.109375 -5.671875 C 42.640625 -5.992188 42.90625 -6.640625 42.90625 -7.609375 C 42.90625 -7.828125 42.851562 -7.988281 42.75 -8.09375 C 42.644531 -8.207031 42.535156 -8.367188 42.421875 -8.578125 L 42.109375 -8.90625 L 42.421875 -9.390625 C 42.535156 -9.609375 42.644531 -9.796875 42.75 -9.953125 C 42.851562 -10.117188 42.90625 -10.253906 42.90625 -10.359375 C 42.582031 -10.796875 42.15625 -10.742188 41.625 -10.203125 C 41.40625 -9.765625 40.941406 -9.25 40.234375 -8.65625 C 39.535156 -8.0625 38.539062 -7.335938 37.25 -6.484375 C 36.382812 -5.828125 35.4375 -5.203125 34.40625 -4.609375 C 33.382812 -4.015625 32.28125 -3.453125 31.09375 -2.921875 C 29.90625 -2.378906 29.039062 -1.945312 28.5 -1.625 C 27.75 -1.1875 27.179688 -0.910156 26.796875 -0.796875 C 26.421875 -0.691406 26.179688 -0.476562 26.078125 -0.15625 C 26.078125 0.164062 25.75 0.164062 25.09375 -0.15625 L 24.78125 -0.15625 C 24.34375 -0.15625 23.664062 -0.078125 22.75 0.078125 C 21.832031 0.242188 20.78125 0.328125 19.59375 0.328125 C 17.757812 0.328125 16.003906 -0.128906 14.328125 -1.046875 C 12.660156 -1.960938 11.175781 -3.070312 9.875 -4.375 C 8.800781 -5.78125 7.882812 -7.15625 7.125 -8.5 C 6.363281 -9.851562 5.878906 -11.226562 5.671875 -12.625 C 5.234375 -14.25 5.015625 -16.164062 5.015625 -18.375 C 5.015625 -20.59375 5.125 -22.941406 5.34375 -25.421875 C 5.5625 -28.015625 6.046875 -30.738281 6.796875 -33.59375 C 7.554688 -36.457031 8.582031 -39.265625 9.875 -42.015625 C 11.175781 -44.773438 12.6875 -47.367188 14.40625 -49.796875 C 16.132812 -52.222656 18.023438 -54.25 20.078125 -55.875 C 20.617188 -56.195312 21.023438 -56.488281 21.296875 -56.75 C 21.566406 -57.019531 21.8125 -57.265625 22.03125 -57.484375 C 23 -58.671875 24.5625 -59.773438 26.71875 -60.796875 C 28.875 -61.828125 30.765625 -62.453125 32.390625 -62.671875 C 33.035156 -62.671875 33.597656 -62.695312 34.078125 -62.75 C 34.566406 -62.800781 34.921875 -62.828125 35.140625 -62.828125 Z M 35.296875 -47.9375 C 32.597656 -47.9375 30.382812 -47.476562 28.65625 -46.5625 C 26.9375 -45.644531 25.15625 -44.210938 23.3125 -42.265625 C 20.832031 -38.804688 19.101562 -35.617188 18.125 -32.703125 C 17.15625 -29.796875 16.40625 -26.238281 15.875 -22.03125 C 15.113281 -16.625 15.21875 -12.734375 16.1875 -10.359375 C 16.84375 -8.628906 18.03125 -7.441406 19.75 -6.796875 C 19.96875 -6.691406 20.316406 -6.640625 20.796875 -6.640625 C 21.285156 -6.640625 21.910156 -6.75 22.671875 -6.96875 C 25.265625 -7.832031 27.664062 -8.988281 29.875 -10.4375 C 32.09375 -11.894531 34.226562 -13.546875 36.28125 -15.390625 C 38.21875 -17.222656 39.941406 -18.460938 41.453125 -19.109375 C 42.753906 -19.648438 43.507812 -20.132812 43.71875 -20.5625 C 43.9375 -21 44.207031 -21.703125 44.53125 -22.671875 C 44.75 -23.859375 44.910156 -25.554688 45.015625 -27.765625 C 45.128906 -29.984375 45.289062 -32.765625 45.5 -36.109375 L 45.671875 -39.671875 L 44.375 -41.453125 C 43.289062 -42.859375 42.535156 -43.9375 42.109375 -44.6875 C 41.242188 -45.988281 40.269531 -46.851562 39.1875 -47.28125 C 38.101562 -47.71875 36.804688 -47.9375 35.296875 -47.9375 Z M 39.515625 11.171875 L 39.515625 10.84375 C 39.734375 9.875 39.707031 9.441406 39.4375 9.546875 C 39.164062 9.660156 38.054688 10.253906 36.109375 11.328125 L 35.953125 11.328125 L 35.78125 11.65625 L 35.296875 11.65625 C 33.035156 12.957031 30.445312 14.550781 27.53125 16.4375 C 24.613281 18.320312 21.695312 20.722656 18.78125 23.640625 L 17.328125 25.09375 L 19.265625 25.265625 C 22.078125 25.484375 24.585938 25.484375 26.796875 25.265625 C 29.015625 25.046875 31.039062 24.503906 32.875 23.640625 C 33.414062 23.421875 34.035156 22.769531 34.734375 21.6875 C 35.429688 20.613281 36.101562 19.375 36.75 17.96875 C 37.40625 16.570312 38 15.222656 38.53125 13.921875 C 39.070312 12.628906 39.398438 11.710938 39.515625 11.171875 Z M 39.515625 11.171875 "/></g></g></g></svg>