<?xml version="1.0" encoding="UTF-8" standalone="no"?>
<!-- Created with Inkscape (http://www.inkscape.org/) -->

<svg
   width="141.71288mm"
   height="24.703623mm"
   viewBox="0 0 141.71288 24.703623"
   version="1.1"
   id="svg5"
   inkscape:version="1.2.2 (b0a8486541, 2022-12-01)"
   sodipodi:docname="revospring_logo.svg"
   xmlns:inkscape="http://www.inkscape.org/namespaces/inkscape"
   xmlns:sodipodi="http://sodipodi.sourceforge.net/DTD/sodipodi-0.dtd"
   xmlns="http://www.w3.org/2000/svg"
   xmlns:svg="http://www.w3.org/2000/svg">
  <sodipodi:namedview
     id="namedview7"
     pagecolor="#505050"
     bordercolor="#eeeeee"
     borderopacity="1"
     inkscape:showpageshadow="0"
     inkscape:pageopacity="0"
     inkscape:pagecheckerboard="0"
     inkscape:deskcolor="#505050"
     inkscape:document-units="mm"
     showgrid="false"
     inkscape:zoom="2.2436535"
     inkscape:cx="240.01032"
     inkscape:cy="-7.5769275"
     inkscape:window-width="1920"
     inkscape:window-height="1127"
     inkscape:window-x="0"
     inkscape:window-y="0"
     inkscape:window-maximized="1"
     inkscape:current-layer="layer1" />
  <defs
     id="defs2">
    <rect
       x="99.904633"
       y="342.51917"
       width="653.9104"
       height="252.66867"
       id="rect524" />
    <clipPath
       clipPathUnits="userSpaceOnUse"
       id="clipPath1542">
      <rect
         style="opacity:0.5;fill:#ffffff;stroke-width:0.224114"
         id="rect1544"
         width="141.83995"
         height="24.932529"
         x="26.150322"
         y="122.65045" />
    </clipPath>
  </defs>
  <g
     inkscape:label="Layer 1"
     inkscape:groupmode="layer"
     id="layer1"
     transform="translate(-26.187119,-122.76411)">
    <g
       id="g1460"
       clip-path="url(#clipPath1542)">
      <path
         d="m 196.00981,490.98653 c 20.736,-6.048 21.984,-35.808 6.624,-46.08 -8.544,-5.664 -27.456,-5.376 -37.248,-1.824 -5.28,1.92 -5.472,8.16 -5.472,13.248 0,13.92 -0.384,32.256 -0.384,48.864 0,5.472 4.032,7.68 8.064,7.584 4.032,-0.096 9.024,-0.096 9.504,-5.472 0.192,-1.824 -0.096,-12.864 0.96,-14.304 7.82443,17.18627 20.03645,19.40931 38.45938,12.86686 58.5067,-35.54596 15.08204,-24.22017 15.37004,-27.67617 0.192,-3.456 -9.23407,12.03431 -22.11995,15.12193 -7.41212,1.65744 -13.46947,1.12733 -13.75747,-2.32862 z m -18.432,-13.056 c 0,-6.72 0.192,-14.688 0.192,-21.12 4.8,-1.92 13.536,-1.152 16.512,4.896 5.472,11.232 -3.936,19.104 -16.704,16.224 z"
         style="font-size:96px;font-family:'Nice Tango';-inkscape-font-specification:'Nice Tango';text-align:center;letter-spacing:-0.06px;text-anchor:middle;white-space:pre;shape-inside:url(#rect524);display:inline;fill:#ffffff"
         id="path1312"
         sodipodi:nodetypes="cccssscccccccccc"
         transform="matrix(0.26458333,0,0,0.26458333,-16.021809,6.2113583)" />
      <path
         d="m 237.88797,492.25788 c 6.63488,-4.15025 7.31177,-5.04638 13.63048,-9.12771 8.35632,-5.71248 12.93196,-8.70949 11.82192,-14.95803 -1.79646,-12.84402 -13.15053,-16.83361 -23.42253,-15.20161 -7.296,1.152 -14.304,5.952 -17.856,12.864 -7.584,15.072 -4.608,41.28 15.36,45.696 7.66411,0.87212 9.77391,1.12628 19.68172,-6.0105 24.76842,-17.22838 17.11467,-10.72622 13.87431,-18.45171 -2.784,-2.688 -1.34706,-4.12044 -11.04011,3.17268 -2.1154,1.59575 -5.58046,4.17836 -8.91813,6.30097 -5.376,3.84 -13.23886,5.38904 -13.13166,-4.28409 z m -1.11098,-14.13891 c -14.20632,1.48089 2.94885,-12.66844 8.80485,-11.90044 1.44,0.192 4.21755,0.28953 4.69755,2.11353 0.48,2.688 -10.8144,9.49891 -13.5024,9.78691 z"
         style="font-size:192px;letter-spacing:0px;word-spacing:-0.001px;white-space:pre;shape-inside:url(#rect524);display:inline;fill:#ffffff"
         id="path1314"
         sodipodi:nodetypes="ccccccccccccccc"
         transform="matrix(0.26458333,0,0,0.26458333,-16.021809,6.2113583)" />
      <path
         d="m 313.81281,482.44253 c -3.84,12.672 -6.624,14.976 -11.424,0.48 -2.208,-6.144 -2.4,-16.992 -4.416,-23.136 -1.44,-3.84 -4.896,-6.528 -10.848,-4.608 -5.088,1.536 -7.104,6.048 -6.72,11.136 0.672,13.536 4.704,33.408 17.088,42.144 6.048,4.416 13.056,4.992 18.72,1.632 9.888,-6.144 23.232,-38.016 19.776,-50.016 -0.96,-3.072 -2.976,-4.992 -5.376,-5.568 -7.968,-1.824 -11.232,2.784 -12.192,5.568 -1.632,5.856 -2.88,16.416 -4.608,22.368 z"
         style="font-size:192px;letter-spacing:0px;word-spacing:-0.001px;white-space:pre;shape-inside:url(#rect524);display:inline;fill:#ffffff"
         id="path1316"
         transform="matrix(0.26458333,0,0,0.26458333,-16.021809,6.2113583)" />
      <path
         d="m 370.35688,452.29853 c -18.528,0.384 -28.8,17.28 -27.936,32.544 2.112,37.536 55.392,35.808 58.944,-1.056 1.824,-19.2 -11.04,-31.872 -31.008,-31.488 z m 2.592,41.376 c -14.592,1.344 -16.608,-24.768 -0.096,-24.768 17.472,0 14.016,22.848 0.096,24.768 z"
         style="font-size:96px;font-family:'Nice Tango';-inkscape-font-specification:'Nice Tango';text-align:center;letter-spacing:-0.06px;text-anchor:middle;white-space:pre;shape-inside:url(#rect524);display:inline;fill:#ffffff"
         id="path1318"
         transform="matrix(0.26458333,0,0,0.26458333,-16.021809,6.2113583)" />
      <path
         d="m 429.52881,477.25853 c -5.28,-3.456 -2.016,-6.336 2.88,-5.76 1.248,0.192 2.496,0.288 3.648,0.384 4.608,0.576 7.68,-1.824 9.6,-5.76 2.976,-6.336 0,-12.864 -6.816,-14.4 -1.824,-0.288 -3.744,-0.48 -5.664,-0.48 -2.976,0 -6.048,0.192 -8.928,0.48 -19.776,1.248 -23.232,26.208 -5.856,34.56 1.92,0.96 3.84,1.728 5.856,2.688 1.344,0.576 2.592,1.344 4.128,2.112 4.896,2.4 2.016,7.104 -3.072,5.184 -3.936,-1.44 -13.824,-4.704 -16.128,1.344 -3.936,10.176 2.592,14.016 8.928,14.88 5.952,0.864 13.344,1.44 19.104,-1.152 13.152,-5.952 13.248,-22.752 -0.864,-30.816 -2.208,-1.248 -4.704,-1.92 -6.816,-3.264 z"
         style="font-size:96px;font-family:'Nice Tango';-inkscape-font-specification:'Nice Tango';text-align:center;letter-spacing:-0.06px;text-anchor:middle;white-space:pre;shape-inside:url(#rect524);display:inline;fill:#ffffff"
         id="path1320"
         transform="matrix(0.26458333,0,0,0.26458333,-16.021809,6.2113583)" />
      <path
         d="m 474.6849,507.97853 c 15.072,1.632 32.736,-9.408 32.16,-29.28 -0.384,-15.168 -9.792,-25.92 -24.96,-28.512 -6.144,-1.056 -12.768,-1.152 -18.048,0.576 -5.184,1.632 -9.504,4.992 -9.696,10.752 -0.576,17.088 1.152,36.576 1.248,53.28 0,3.84 2.208,8.64 6.72,9.024 6.144,0.576 13.632,-0.672 12.864,-10.464 -0.096,-1.728 -0.192,-3.552 -0.288,-5.376 z m -2.016,-15.744 c -0.48,-8.64 0.288,-15.648 0.288,-20.928 0.48,-4.128 2.496,-5.28 4.992,-4.992 18.24,1.92 12.096,27.648 -5.28,25.92 z"
         style="font-size:96px;font-family:'Nice Tango';-inkscape-font-specification:'Nice Tango';text-align:center;letter-spacing:-0.06px;text-anchor:middle;white-space:pre;shape-inside:url(#rect524);display:inline;fill:#ffffff"
         id="path1322"
         transform="matrix(0.26458333,0,0,0.26458333,-16.021809,6.2113583)" />
      <path
         d="m 529.53698,457.57853 c -0.384,-0.48 -0.576,-0.864 -0.96,-1.248 -2.88,-3.168 -4.512,-4.608 -9.12,-4.224 -5.184,0.384 -8.16,1.344 -7.296,7.968 0.672,13.824 1.056,28.896 0,45.216 -0.288,4.992 1.824,7.488 9.888,6.912 5.184,-0.192 7.584,-2.88 7.968,-8.16 0.672,-6.912 -1.344,-14.592 0.288,-21.6 1.536,-6.432 6.912,-11.136 15.648,-9.6 5.76,1.056 10.464,-2.976 10.656,-8.256 0.192,-3.168 -0.288,-6.912 -2.592,-9.024 -4.992,-4.416 -17.76,-0.864 -24.48,2.016 z"
         style="font-size:96px;font-family:'Nice Tango';-inkscape-font-specification:'Nice Tango';text-align:center;letter-spacing:-0.06px;text-anchor:middle;white-space:pre;shape-inside:url(#rect524);display:inline;fill:#ffffff"
         id="path1324"
         transform="matrix(0.26458333,0,0,0.26458333,-16.021809,6.2113583)" />
      <path
         d="m 563.46095,479.94653 c -1.152,8.064 -0.864,17.568 -0.192,25.728 0.384,4.8 4.32,7.392 8.352,6.912 4.032,-0.48 7.776,-1.056 8.448,-5.664 1.056,-7.488 -0.672,-16.608 0.48,-24.48 0.864,-6.24 -2.304,-11.52 -9.696,-10.656 -3.648,0.384 -6.336,3.168 -7.392,8.16 z m 18.816,-19.872 c -0.384,-11.136 -17.856,-10.272 -17.856,0.576 0.288,11.52 18.048,9.6 17.856,-0.576 z"
         style="font-size:96px;font-family:'Nice Tango';-inkscape-font-specification:'Nice Tango';text-align:center;letter-spacing:-0.06px;text-anchor:middle;white-space:pre;shape-inside:url(#rect524);display:inline;fill:#ffffff"
         id="path1326"
         transform="matrix(0.26458333,0,0,0.26458333,-16.021809,6.2113583)" />
      <path
         d="m 603.52895,458.63453 c 0.288,0.192 -0.096,0.096 -0.192,-0.096 -3.648,-5.952 -16.416,-5.472 -16.416,2.784 0.576,14.016 0.384,28.128 0.192,41.088 0,3.264 0.576,8.16 4.224,9.408 3.744,1.248 7.296,0.864 11.04,-0.096 0.96,-0.096 2.208,-1.248 2.784,-2.112 0.768,-1.44 1.248,-3.264 1.248,-4.992 0,-6.912 0.096,-14.016 0.384,-21.504 0.48,-14.016 11.136,-15.552 11.136,0.768 0,2.208 -0.096,4.224 -0.096,6.336 -0.192,4.992 -0.576,9.984 -0.96,14.976 0,4.608 4.512,7.488 9.6,7.008 4.224,-0.096 9.312,-2.784 9.696,-7.104 1.152,-7.68 2.304,-25.44 -1.728,-36.864 -5.664,-15.84 -21.024,-14.784 -30.912,-9.6 z"
         style="font-size:96px;font-family:'Nice Tango';-inkscape-font-specification:'Nice Tango';text-align:center;letter-spacing:-0.06px;text-anchor:middle;white-space:pre;shape-inside:url(#rect524);display:inline;fill:#ffffff"
         id="path1328"
         transform="matrix(0.26458333,0,0,0.26458333,-16.021809,6.2113583)" />
      <path
         d="m 676.14094,503.56253 c 0.96,5.952 -2.688,15.936 -10.656,11.712 -1.248,-0.576 -2.208,-1.344 -3.456,-2.016 -5.376,-2.592 -11.808,0.864 -12.288,6.816 -0.576,6.432 5.472,9.792 11.04,12.192 9.792,3.936 23.904,0.864 29.856,-11.232 4.896,-9.792 5.856,-44.448 2.592,-55.776 -3.36,-11.616 -12.864,-14.592 -22.656,-13.92 -18.912,1.248 -26.784,13.824 -27.36,32.352 -0.192,8.256 2.112,16.128 9.696,19.68 7.2,3.456 15.264,3.552 23.232,0.192 z m -14.208,-26.4 c 1.536,-8.736 14.784,-9.12 15.264,-0.768 1.152,16.992 -17.952,16.896 -15.264,0.768 z"
         style="font-size:96px;font-family:'Nice Tango';-inkscape-font-specification:'Nice Tango';text-align:center;letter-spacing:-0.06px;text-anchor:middle;white-space:pre;shape-inside:url(#rect524);display:inline;fill:#ffffff"
         id="path1330"
         transform="matrix(0.26458333,0,0,0.26458333,-16.021809,6.2113583)" />
      <path
         id="path1316-3"
         style="font-size:192px;letter-spacing:0px;word-spacing:-0.001px;white-space:pre;shape-inside:url(#rect524);display:inline;fill:#ffffff;stroke-width:0.116502"
         d="m 53.167236,134.44595 c -3.965282,1.94848 -3.937913,1.94257 -2.76711,3.06116 1.938076,1.75367 1.061942,1.03782 2.868792,2.60505 1.629483,1.09053 1.622205,1.24094 3.246939,-3.00353 1.529252,-5.02622 1.527607,-4.98285 -3.348621,-2.66268 z"
         sodipodi:nodetypes="ccccc" />
    </g>
  </g>
</svg>
